<?xml version="1.0" encoding="utf-8"?>
<!-- Generator: Adobe Illustrator 27.5.0, SVG Export Plug-In . SVG Version: 6.00 Build 0)  -->
<svg version="1.1" xmlns="http://www.w3.org/2000/svg" xmlns:xlink="http://www.w3.org/1999/xlink" x="0px" y="0px"
	 viewBox="0 0 750 500" style="enable-background:new 0 0 750 500;" xml:space="preserve">
<g id="BACKGROUND">
	<rect style="fill:#F2F2F2;" width="750" height="500"/>
	<g>
		<path style="fill:#D6ECF1;" d="M597.731,391.732c0.799-30.01,3.927-59.982,16.474-85.732c8.487-17.419,20.991-32.152,27.31-50.799
			c11.645-34.365-3.208-77.963-31.817-93.391c-39.262-21.174-85.916,9.259-128.092-1.725
			c-43.018-11.203-75.598-63.943-119.586-60.963c-29.745,2.016-53.135,29.243-74.13,54.086
			c-20.995,24.842-46.254,50.704-76.004,48.807c-16.462-1.05-31.953-10.746-48.439-10.993
			c-27.836-0.418-51.998,28.106-57.463,60.182c-5.465,32.076,4.748,65.633,21.238,91.989c11.55,18.461,25.952,33.997,41.103,48.54
			H597.731z"/>
		<g>
			<path style="fill:#D6ECF1;" d="M553.141,101l0.169-0.216c1.331-6.499-1.54-13.664-6.991-17.445
				c-5.451-3.781-13.167-3.961-18.789-0.438c-6.872,4.307-11.264,13.649-19.373,13.784c-7.371,0.122-13.066-7.908-20.43-7.573
				c-5.982,0.272-10.105,5.808-13.982,10.371c-0.435,0.512-0.904,1.02-1.393,1.517H553.141z"/>
			<path style="fill:#D6ECF1;" d="M221.126,124.5c-2.327-5.548-9.299-9.226-15.061-6.981c-4.421,1.723-8.678,6.191-13.032,4.304
				c-3.001-1.3-4.126-5.079-6.848-6.892c-3.825-2.547-8.986-0.284-12.657,2.48c-3.671,2.764-7.477,6.212-12.068,6.005
				c-6.01-0.272-9.754-6.555-11.775-12.222c-2.02-5.667-3.996-12.192-9.41-14.818c-5.566-2.7-12.409,0.168-16.767,4.558
				c-4.359,4.389-7.108,10.104-10.961,14.943c-3.853,4.839-9.574,9.01-15.713,8.248c-3.624-0.45-6.85-2.56-10.435-3.256
				c-4.177-0.811-8.457,0.78-11.583,3.631H221.126z"/>
		</g>
	</g>
</g>
<g id="OBJECTS">
	<g>
		<g>
			<g>
				<path style="fill:#00C2DB;" d="M476.482,244.893l9.893-4.155c7.99-19.603,14.092-41.834,16.199-66.294l-11.636-0.091
					l12.099-6.45c0.651-11.697,0.382-23.876-1.042-36.503c-0.396-3.51-4.544-5.161-7.232-2.869
					c-9.366,7.988-27.783,25.481-44.348,51.751l5.757,15.993l-9.523-9.81c-9.561,16.277-18.184,35.588-23.642,57.787l8.376,20.17
					l-10.648-9.772c-4.167,21.68-5.245,45.882-1.364,72.498c0.52,3.568,4.862,5.055,7.435,2.529
					c11.974-11.756,39.018-41.282,57.538-84.097L476.482,244.893z"/>
				<line style="fill:none;stroke:#D6ECF1;stroke-miterlimit:10;" x1="495.519" y1="134.84" x2="421.472" y2="326"/>
			</g>
			<g>
				<path style="fill:#00C2DB;" d="M305.738,346.82c-6.556-3.495-11.442-9.977-12.996-17.242
					c-2.697-12.603,4.183-26.407-0.801-38.293c-6.32-15.071-28.35-19.009-33.733-34.439c-3.372-9.666,1.148-20.665-1.854-30.452
					c-2.18-7.106-7.974-12.454-11.571-18.959c-3.597-6.504-4.083-16.222,2.344-19.956c4.469-2.597,10.282-0.982,14.579,1.889
					c4.297,2.872,7.765,6.873,12.147,9.613c7.793,4.873,17.666,5.291,25.7,9.755c7.902,4.392,13.462,12.754,14.453,21.74
					c1,9.066-2.232,18.995,2.236,26.947c3.632,6.466,11.172,9.401,17.337,13.525c12.718,8.507,20.505,23.901,19.824,39.186
					C352.4,332.639,329.984,359.746,305.738,346.82z"/>
				<line style="fill:none;stroke:#D6ECF1;stroke-miterlimit:10;" x1="249.354" y1="194.009" x2="337.315" y2="337.06"/>
			</g>
			<g>
				<path style="fill:#1DDAF2;" d="M390.708,341.155c1.219-7.329,5.802-14.029,12.19-17.822
					c11.082-6.579,26.361-4.467,36.032-12.986c12.264-10.801,8.962-32.936,21.866-42.964c8.083-6.281,19.95-5.51,28.266-11.48
					c6.038-4.334,9.257-11.533,14.272-17.019s14.069-9.049,19.66-4.151c3.888,3.406,4.214,9.43,2.865,14.419
					c-1.349,4.989-4.034,9.553-5.231,14.581c-2.129,8.941,0.627,18.431-1.039,27.469c-1.639,8.891-7.788,16.829-15.987,20.638
					c-8.272,3.843-18.713,3.95-24.822,10.723c-4.967,5.507-5.342,13.589-7.281,20.747c-4.001,14.768-16.102,27.064-30.805,31.298
					C419.045,380.846,386.201,368.259,390.708,341.155z"/>
				<line style="fill:none;stroke:#D6ECF1;stroke-miterlimit:10;" x1="517.517" y1="238.931" x2="410.04" y2="367.963"/>
			</g>
		</g>
		<g>
			<g>
				<path style="fill:#002538;" d="M443.903,391.732H310.484c-4.732,0-8.568-3.836-8.568-8.569V130.301
					c0-4.732,3.836-8.569,8.568-8.569h133.418c4.732,0,8.569,3.836,8.569,8.569v252.863
					C452.471,387.896,448.635,391.732,443.903,391.732z"/>
				<path style="fill:#FFFFFF;" d="M448.47,130.3v252.86c0,2.52-2.05,4.57-4.57,4.57H310.48c-2.51,0-4.56-2.05-4.56-4.57V130.3
					c0-0.08,0-0.17,0.01-0.25c0.13-2.4,2.12-4.32,4.55-4.32h48.99l1.97,5.71h31.5l1.97-5.71h48.99
					C446.42,125.73,448.47,127.78,448.47,130.3z"/>
			</g>
			<g>
				<g>
					<path style="fill:#FF6B5F;" d="M417.707,196.377h-81.875c-1.76,0-3.188-1.427-3.188-3.188v-15.375
						c0-1.76,1.427-3.188,3.188-3.188h81.875c1.76,0,3.188,1.427,3.188,3.188v15.375
						C420.895,194.95,419.468,196.377,417.707,196.377z"/>
					
						<text transform="matrix(1 0 0 1 336.8755 190.2972)" style="fill:#FFFFFF; font-family:'Montserrat-Bold'; font-size:13.4384px;">CASHBACK</text>
				</g>
				<g>
					<g>
						<g>
							<path style="fill:#00DCA9;" d="M429.463,338.837H324.077c-2.691,0-4.872-2.181-4.872-4.872V272.25
								c0-2.691,2.181-4.872,4.872-4.872h105.385c2.691,0,4.872,2.181,4.872,4.872v61.715
								C434.335,336.656,432.154,338.837,429.463,338.837z"/>
						</g>
						<g style="opacity:0.27;">
							<g>
								
									<linearGradient id="SVGID_1_" gradientUnits="userSpaceOnUse" x1="515.5348" y1="267.257" x2="515.5348" y2="333.9481" gradientTransform="matrix(1 0 -0.2241 1 -94.4521 0)">
									<stop  offset="0" style="stop-color:#FFFFFF;stop-opacity:0"/>
									<stop  offset="0.44" style="stop-color:#FFFFFF"/>
									<stop  offset="0.9925" style="stop-color:#FFFFFF;stop-opacity:0"/>
								</linearGradient>
								<polygon style="fill:url(#SVGID_1_);" points="361.294,338.837 329.001,338.837 345.018,267.377 377.311,267.377 								
									"/>
							</g>
							<g>
								
									<linearGradient id="SVGID_00000017492961942416551470000002006444552146661266_" gradientUnits="userSpaceOnUse" x1="550.1604" y1="267.257" x2="550.1604" y2="333.9481" gradientTransform="matrix(1 0 -0.2241 1 -94.4521 0)">
									<stop  offset="0" style="stop-color:#FFFFFF;stop-opacity:0"/>
									<stop  offset="0.44" style="stop-color:#FFFFFF"/>
									<stop  offset="0.9925" style="stop-color:#FFFFFF;stop-opacity:0"/>
								</linearGradient>
								<polygon style="fill:url(#SVGID_00000017492961942416551470000002006444552146661266_);" points="385.973,338.837 
									373.574,338.837 389.591,267.377 401.99,267.377 								"/>
							</g>
							<g>
								
									<linearGradient id="SVGID_00000048466272953228134940000002721086205994404540_" gradientUnits="userSpaceOnUse" x1="562.8824" y1="267.257" x2="562.8824" y2="333.9481" gradientTransform="matrix(1 0 -0.2241 1 -94.4521 0)">
									<stop  offset="0" style="stop-color:#FFFFFF;stop-opacity:0"/>
									<stop  offset="0.44" style="stop-color:#FFFFFF"/>
									<stop  offset="0.9925" style="stop-color:#FFFFFF;stop-opacity:0"/>
								</linearGradient>
								<polygon style="fill:url(#SVGID_00000048466272953228134940000002721086205994404540_);" points="395.537,338.837 
									389.453,338.837 405.471,267.377 411.555,267.377 								"/>
							</g>
						</g>
					</g>
					<g>
						<path style="fill:#FFFFFF;" d="M327.56,312.338h-0.87v-5.252l-0.883,0.541v-0.899l0.883-0.588h0.87V312.338z"/>
						<path style="fill:#FFFFFF;" d="M330.62,311.583l2.161-2.882c0.125-0.165,0.223-0.336,0.293-0.513
							c0.069-0.178,0.104-0.343,0.104-0.497v-0.009c0-0.247-0.073-0.439-0.218-0.576c-0.145-0.136-0.351-0.205-0.618-0.205
							c-0.252,0-0.457,0.075-0.613,0.224c-0.156,0.149-0.252,0.36-0.286,0.633v0.004h-0.9v-0.004
							c0.052-0.355,0.156-0.659,0.314-0.91c0.158-0.252,0.362-0.443,0.612-0.576c0.25-0.132,0.539-0.198,0.865-0.198
							c0.369,0,0.685,0.063,0.947,0.19c0.262,0.126,0.46,0.31,0.597,0.552c0.136,0.242,0.204,0.533,0.204,0.874v0.004
							c0,0.219-0.046,0.448-0.137,0.686c-0.091,0.239-0.217,0.469-0.379,0.691l-1.795,2.438h2.344v0.827h-3.496V311.583z"/>
						<path style="fill:#FFFFFF;" d="M338.053,312.402c0,0-0.132-0.063-0.396-0.19c-0.264-0.127-0.477-0.31-0.637-0.55
							c-0.161-0.24-0.262-0.529-0.305-0.868h0.887c0.026,0.176,0.081,0.321,0.166,0.435c0.085,0.114,0.195,0.198,0.331,0.254
							c0.135,0.055,0.293,0.083,0.475,0.083c0.287,0,0.51-0.077,0.67-0.23c0.159-0.154,0.238-0.37,0.238-0.648V310.5
							c0-0.31-0.075-0.549-0.226-0.718c-0.151-0.169-0.364-0.254-0.639-0.254h-0.439v-0.827h0.439c0.241,0,0.429-0.072,0.563-0.217
							c0.133-0.145,0.2-0.35,0.2-0.614v-0.192c0-0.244-0.07-0.433-0.211-0.567c-0.141-0.134-0.341-0.201-0.599-0.201
							c-0.148,0-0.28,0.028-0.396,0.083c-0.117,0.055-0.216,0.141-0.297,0.256c-0.081,0.115-0.14,0.259-0.177,0.433h-0.883
							c0.057-0.338,0.164-0.628,0.322-0.87s0.357-0.425,0.599-0.55c0.241-0.125,0.519-0.188,0.831-0.188
							c0.534,0,0.948,0.141,1.241,0.422c0.293,0.281,0.439,0.678,0.439,1.19v0.102c0,0.31-0.084,0.58-0.252,0.81
							c-0.168,0.23-0.405,0.398-0.712,0.503c0.338,0.074,0.601,0.24,0.787,0.499c0.186,0.258,0.279,0.588,0.279,0.989v0.102
							c0,0.361-0.07,0.669-0.209,0.925c-0.139,0.256-0.342,0.45-0.608,0.584c-0.266,0.134-0.586,0.2-0.961,0.2
							C338.226,312.402,338.053,312.402,338.053,312.402z"/>
						<path style="fill:#FFFFFF;" d="M347.338,310.633l2.081-4.489h0.895l-2.029,4.438h3.04v0.806h-3.986V310.633z M350.011,308.693
							h0.849v3.649h-0.849V308.693z"/>
						<path style="fill:#FFFFFF;" d="M355.034,312.218c-0.242-0.122-0.441-0.3-0.592-0.533c-0.152-0.233-0.254-0.513-0.305-0.84
							v-0.005h0.87v0.005c0.031,0.227,0.122,0.404,0.273,0.53c0.151,0.126,0.347,0.19,0.589,0.19c0.279,0,0.493-0.093,0.646-0.28
							c0.152-0.186,0.228-0.448,0.228-0.786v-0.52c0-0.335-0.076-0.596-0.228-0.782c-0.152-0.187-0.367-0.28-0.646-0.28
							c-0.151,0-0.296,0.043-0.435,0.128c-0.14,0.085-0.262,0.205-0.367,0.358h-0.793v-3.265h3.159v0.827h-2.289v1.394
							c0.109-0.088,0.229-0.157,0.363-0.205c0.133-0.048,0.27-0.072,0.409-0.072c0.358,0,0.665,0.074,0.919,0.221
							c0.254,0.148,0.448,0.364,0.58,0.648c0.132,0.284,0.198,0.627,0.198,1.027v0.52c0,0.401-0.068,0.743-0.204,1.027
							c-0.137,0.284-0.336,0.501-0.597,0.65c-0.262,0.149-0.575,0.224-0.942,0.224C355.555,312.402,355.277,312.341,355.034,312.218
							z"/>
						<path style="fill:#FFFFFF;" d="M361.301,312.182c-0.259-0.147-0.456-0.359-0.591-0.64c-0.135-0.28-0.202-0.617-0.202-1.013
							v-0.004c0-0.23,0.027-0.471,0.081-0.725c0.054-0.253,0.132-0.501,0.234-0.746c0.017-0.043,0.036-0.084,0.056-0.126
							c0.02-0.041,0.04-0.082,0.06-0.122l1.347-2.669h0.938l-1.582,3.091l0.005-0.153c0.07-0.134,0.174-0.237,0.311-0.311
							c0.137-0.074,0.295-0.111,0.477-0.111c0.321,0,0.597,0.073,0.828,0.217c0.23,0.145,0.405,0.356,0.525,0.633
							c0.119,0.277,0.179,0.61,0.179,1v0.004c0,0.398-0.068,0.739-0.203,1.023c-0.135,0.284-0.332,0.5-0.592,0.648
							c-0.26,0.148-0.572,0.222-0.936,0.222C361.871,312.402,361.559,312.329,361.301,312.182z M362.871,311.31
							c0.15-0.171,0.224-0.413,0.224-0.729v-0.005c0-0.346-0.078-0.614-0.235-0.803c-0.156-0.189-0.379-0.283-0.669-0.283
							c-0.259,0-0.46,0.095-0.601,0.286c-0.142,0.19-0.214,0.459-0.214,0.806v0.004c0,0.315,0.075,0.558,0.224,0.727
							c0.149,0.169,0.36,0.254,0.633,0.254C362.51,311.566,362.723,311.481,362.871,311.31z"/>
						<path style="fill:#FFFFFF;" d="M374.155,306.915l-1.603,5.423h-0.925l1.603-5.372h-1.578v0.891h-0.87v-1.718h3.372V306.915z"
							/>
						<path style="fill:#FFFFFF;" d="M377.922,312.189c-0.284-0.142-0.503-0.343-0.658-0.603c-0.155-0.26-0.233-0.562-0.233-0.906
							v-0.103c0-0.309,0.078-0.601,0.233-0.874c0.155-0.273,0.362-0.479,0.62-0.618c-0.219-0.119-0.394-0.292-0.527-0.518
							c-0.132-0.226-0.198-0.464-0.198-0.714v-0.149c0-0.324,0.073-0.609,0.217-0.855c0.145-0.246,0.35-0.436,0.614-0.571
							c0.264-0.135,0.572-0.203,0.921-0.203c0.349,0,0.656,0.068,0.921,0.203c0.264,0.135,0.469,0.325,0.614,0.571
							c0.145,0.246,0.217,0.531,0.217,0.855v0.149c0,0.256-0.068,0.496-0.202,0.721c-0.135,0.224-0.314,0.395-0.535,0.511
							c0.262,0.142,0.471,0.349,0.629,0.62c0.158,0.271,0.237,0.562,0.237,0.872v0.103c0,0.344-0.078,0.646-0.233,0.906
							s-0.374,0.461-0.658,0.603c-0.285,0.142-0.614,0.213-0.989,0.213C378.536,312.402,378.207,312.331,377.922,312.189z
							 M379.444,311.447c0.153-0.08,0.272-0.191,0.356-0.335c0.083-0.143,0.126-0.309,0.126-0.497v-0.06
							c0-0.19-0.042-0.357-0.126-0.501c-0.084-0.143-0.203-0.255-0.356-0.335c-0.154-0.079-0.331-0.119-0.533-0.119
							c-0.202,0-0.38,0.04-0.533,0.119c-0.154,0.08-0.273,0.192-0.356,0.337c-0.084,0.145-0.126,0.313-0.126,0.503v0.064
							c0,0.188,0.042,0.352,0.126,0.495c0.083,0.142,0.202,0.252,0.356,0.33c0.153,0.078,0.331,0.117,0.533,0.117
							C379.113,311.566,379.291,311.526,379.444,311.447z M379.372,308.652c0.133-0.075,0.237-0.182,0.311-0.322
							c0.074-0.139,0.111-0.3,0.111-0.482v-0.06c0-0.173-0.037-0.327-0.111-0.46c-0.074-0.134-0.178-0.237-0.311-0.309
							c-0.134-0.073-0.288-0.109-0.46-0.109c-0.173,0-0.327,0.036-0.461,0.109c-0.133,0.072-0.237,0.175-0.311,0.309
							c-0.074,0.134-0.111,0.288-0.111,0.465v0.064c0,0.179,0.037,0.338,0.111,0.475c0.074,0.138,0.178,0.245,0.311,0.32
							c0.134,0.075,0.288,0.113,0.461,0.113C379.084,308.765,379.238,308.728,379.372,308.652z"/>
						<path style="fill:#FFFFFF;" d="M385.948,309.26l-0.004,0.153c-0.071,0.131-0.178,0.227-0.322,0.288
							c-0.143,0.061-0.313,0.092-0.51,0.092c-0.295,0-0.555-0.075-0.78-0.226c-0.225-0.151-0.399-0.363-0.522-0.637
							c-0.124-0.275-0.185-0.592-0.185-0.953v-0.004c0-0.401,0.067-0.743,0.202-1.027c0.135-0.284,0.333-0.5,0.593-0.648
							c0.26-0.148,0.572-0.222,0.935-0.222c0.364,0,0.675,0.075,0.934,0.226c0.258,0.151,0.455,0.369,0.59,0.656
							c0.135,0.287,0.203,0.633,0.203,1.036v0.004c0,0.222-0.029,0.458-0.085,0.71c-0.057,0.251-0.138,0.501-0.243,0.748
							c-0.017,0.037-0.034,0.075-0.051,0.113c-0.017,0.038-0.035,0.076-0.055,0.113l-1.322,2.656h-0.938L385.948,309.26z
							 M385.988,308.723c0.149-0.185,0.224-0.445,0.224-0.78v-0.004c0-0.327-0.075-0.58-0.224-0.759
							c-0.149-0.179-0.36-0.268-0.633-0.268c-0.276,0-0.488,0.09-0.637,0.268c-0.15,0.179-0.224,0.434-0.224,0.763v0.004
							c0,0.336,0.075,0.595,0.224,0.778c0.149,0.183,0.362,0.275,0.637,0.275C385.628,309,385.839,308.907,385.988,308.723z"/>
						<path style="fill:#FFFFFF;" d="M390.429,311.937c-0.3-0.31-0.45-0.742-0.45-1.296v-2.818c0-0.557,0.151-0.99,0.452-1.298
							c0.302-0.308,0.74-0.463,1.318-0.463c0.58,0,1.019,0.154,1.319,0.461c0.3,0.307,0.45,0.74,0.45,1.3v2.818
							c0,0.557-0.151,0.99-0.452,1.298c-0.302,0.308-0.741,0.462-1.317,0.462C391.169,312.402,390.729,312.247,390.429,311.937z
							 M392.429,311.334c0.146-0.16,0.219-0.391,0.219-0.693v-2.818c0-0.301-0.073-0.532-0.217-0.693
							c-0.145-0.16-0.373-0.241-0.682-0.241c-0.31,0-0.537,0.08-0.682,0.241c-0.145,0.161-0.217,0.392-0.217,0.693v2.818
							c0,0.301,0.073,0.532,0.219,0.693c0.147,0.161,0.374,0.241,0.68,0.241C392.055,311.575,392.282,311.494,392.429,311.334z"/>
					</g>
					<g>
						<path style="fill:#FFFFFF;" d="M326.207,325.542c-0.163-0.079-0.296-0.19-0.399-0.333l0.422-0.303
							c0.047,0.083,0.115,0.146,0.205,0.192c0.089,0.045,0.193,0.068,0.31,0.068c0.2,0,0.356-0.062,0.466-0.187
							c0.11-0.124,0.165-0.299,0.165-0.525v-2.502h0.515v2.505c0,0.254-0.045,0.471-0.134,0.652c-0.089,0.18-0.22,0.317-0.392,0.411
							c-0.172,0.094-0.379,0.141-0.621,0.141C326.549,325.66,326.37,325.621,326.207,325.542z"/>
						<path style="fill:#FFFFFF;" d="M329.338,325.492c-0.196-0.112-0.347-0.27-0.453-0.475c-0.107-0.204-0.16-0.441-0.16-0.711
							v-1.04c0-0.269,0.054-0.506,0.16-0.711c0.107-0.205,0.258-0.363,0.453-0.475c0.195-0.112,0.421-0.168,0.677-0.168
							s0.481,0.056,0.676,0.168c0.195,0.112,0.347,0.27,0.453,0.475c0.107,0.204,0.161,0.441,0.161,0.711v1.04
							c0,0.269-0.054,0.506-0.161,0.711c-0.107,0.205-0.258,0.363-0.453,0.475c-0.195,0.112-0.421,0.168-0.676,0.168
							S329.533,325.604,329.338,325.492z M330.415,325.05c0.115-0.068,0.205-0.165,0.268-0.29c0.063-0.125,0.094-0.271,0.094-0.436
							v-1.076c0-0.165-0.032-0.31-0.094-0.436c-0.063-0.125-0.152-0.222-0.268-0.29c-0.115-0.068-0.249-0.102-0.4-0.102
							c-0.152,0-0.285,0.034-0.4,0.102c-0.115,0.068-0.205,0.165-0.268,0.29c-0.063,0.125-0.095,0.271-0.095,0.436v1.076
							c0,0.165,0.032,0.31,0.095,0.436c0.063,0.126,0.153,0.222,0.268,0.29c0.115,0.068,0.249,0.102,0.4,0.102
							C330.166,325.153,330.3,325.118,330.415,325.05z"/>
						<path style="fill:#FFFFFF;" d="M332.088,321.951h0.515v3.672h-0.515V321.951z M332.409,323.569h2.038v0.49h-2.038V323.569z
							 M334.173,321.951h0.515v3.672h-0.515V321.951z"/>
						<path style="fill:#FFFFFF;" d="M335.597,321.951h0.467l1.795,2.838l-0.061,0.066v-2.904h0.51v3.669h-0.472l-1.79-2.795
							l0.061-0.066v2.861h-0.51V321.951z"/>
						<path style="fill:#FFFFFF;" d="M340.607,321.951h0.515v3.672h-0.515V321.951z M340.956,325.133h0.831
							c0.271,0,0.482-0.07,0.63-0.211c0.149-0.141,0.223-0.339,0.223-0.595v-1.081c0-0.256-0.074-0.454-0.223-0.594
							c-0.149-0.141-0.359-0.211-0.63-0.211h-0.831v-0.49h0.816c0.295,0,0.546,0.051,0.755,0.154
							c0.209,0.103,0.368,0.252,0.477,0.449c0.109,0.197,0.164,0.434,0.164,0.712v1.04c0,0.278-0.055,0.515-0.164,0.712
							c-0.109,0.197-0.269,0.347-0.478,0.45c-0.21,0.103-0.462,0.154-0.756,0.154h-0.813V325.133z"/>
						<path style="fill:#FFFFFF;" d="M344.438,325.492c-0.196-0.112-0.346-0.27-0.453-0.475c-0.107-0.204-0.16-0.441-0.16-0.711
							v-1.04c0-0.269,0.054-0.506,0.16-0.711c0.107-0.205,0.258-0.363,0.453-0.475c0.195-0.112,0.421-0.168,0.677-0.168
							s0.482,0.056,0.677,0.168c0.195,0.112,0.346,0.27,0.453,0.475c0.107,0.204,0.161,0.441,0.161,0.711v1.04
							c0,0.269-0.054,0.506-0.161,0.711c-0.107,0.205-0.258,0.363-0.453,0.475c-0.195,0.112-0.421,0.168-0.677,0.168
							S344.633,325.604,344.438,325.492z M345.515,325.05c0.115-0.068,0.205-0.165,0.268-0.29c0.063-0.125,0.094-0.271,0.094-0.436
							v-1.076c0-0.165-0.032-0.31-0.094-0.436c-0.063-0.125-0.152-0.222-0.268-0.29c-0.115-0.068-0.249-0.102-0.4-0.102
							c-0.151,0-0.285,0.034-0.4,0.102c-0.115,0.068-0.205,0.165-0.268,0.29c-0.063,0.125-0.095,0.271-0.095,0.436v1.076
							c0,0.165,0.032,0.31,0.095,0.436c0.063,0.126,0.153,0.222,0.268,0.29c0.115,0.068,0.249,0.102,0.4,0.102
							C345.266,325.153,345.399,325.118,345.515,325.05z"/>
						<path style="fill:#FFFFFF;" d="M346.859,321.951h0.561l0.881,2.879l0.881-2.879h0.561l-1.197,3.672h-0.49L346.859,321.951z"/>
						<path style="fill:#FFFFFF;" d="M350.298,321.951h0.515v3.672h-0.515V321.951z M350.549,321.951h2.109v0.49h-2.109V321.951z
							 M350.549,323.554h1.831v0.49h-1.831V323.554z M350.549,325.133h2.109v0.49h-2.109V325.133z"/>
					</g>
					<g>
						<path style="fill:#FFFFFF;" d="M363.204,320.813c-0.238-0.246-0.357-0.588-0.357-1.027v-2.234
							c0-0.441,0.119-0.784,0.358-1.029c0.239-0.244,0.587-0.367,1.044-0.367c0.46,0,0.808,0.122,1.046,0.365
							c0.238,0.243,0.357,0.587,0.357,1.031v2.234c0,0.442-0.119,0.785-0.358,1.029c-0.239,0.244-0.587,0.367-1.044,0.367
							C363.791,321.182,363.442,321.059,363.204,320.813z M364.789,320.335c0.116-0.127,0.174-0.31,0.174-0.549v-2.234
							c0-0.239-0.057-0.422-0.172-0.549c-0.115-0.127-0.295-0.191-0.541-0.191c-0.246,0-0.426,0.064-0.541,0.191
							c-0.115,0.127-0.172,0.31-0.172,0.549v2.234c0,0.239,0.058,0.422,0.174,0.549c0.116,0.127,0.296,0.191,0.539,0.191
							C364.493,320.526,364.673,320.462,364.789,320.335z"/>
						<path style="fill:#FFFFFF;" d="M366.888,320.813c-0.238-0.246-0.357-0.588-0.357-1.027v-2.234
							c0-0.441,0.119-0.784,0.358-1.029c0.239-0.244,0.587-0.367,1.044-0.367c0.46,0,0.808,0.122,1.046,0.365
							c0.238,0.243,0.357,0.587,0.357,1.031v2.234c0,0.442-0.119,0.785-0.358,1.029c-0.239,0.244-0.587,0.367-1.044,0.367
							C367.474,321.182,367.125,321.059,366.888,320.813z M368.473,320.335c0.116-0.127,0.174-0.31,0.174-0.549v-2.234
							c0-0.239-0.057-0.422-0.172-0.549c-0.115-0.127-0.295-0.191-0.541-0.191c-0.246,0-0.426,0.064-0.541,0.191
							c-0.115,0.127-0.172,0.31-0.172,0.549v2.234c0,0.239,0.058,0.422,0.174,0.549c0.116,0.127,0.296,0.191,0.539,0.191
							C368.177,320.526,368.357,320.462,368.473,320.335z"/>
						<path style="fill:#FFFFFF;" d="M370.468,322.064h-0.659l2.281-6.428h0.659L370.468,322.064z"/>
						<path style="fill:#FFFFFF;" d="M373.596,320.813c-0.238-0.246-0.357-0.588-0.357-1.027v-2.234
							c0-0.441,0.119-0.784,0.358-1.029c0.239-0.244,0.587-0.367,1.044-0.367c0.46,0,0.808,0.122,1.046,0.365
							c0.238,0.243,0.357,0.587,0.357,1.031v2.234c0,0.442-0.119,0.785-0.358,1.029c-0.239,0.244-0.587,0.367-1.044,0.367
							C374.182,321.182,373.834,321.059,373.596,320.813z M375.181,320.335c0.116-0.127,0.174-0.31,0.174-0.549v-2.234
							c0-0.239-0.057-0.422-0.172-0.549c-0.115-0.127-0.295-0.191-0.541-0.191c-0.246,0-0.426,0.064-0.541,0.191
							c-0.115,0.127-0.172,0.31-0.172,0.549v2.234c0,0.239,0.058,0.422,0.174,0.549c0.116,0.127,0.296,0.191,0.539,0.191
							C374.885,320.526,375.065,320.462,375.181,320.335z"/>
						<path style="fill:#FFFFFF;" d="M377.279,320.813c-0.238-0.246-0.356-0.588-0.356-1.027v-2.234
							c0-0.441,0.119-0.784,0.358-1.029c0.239-0.244,0.587-0.367,1.044-0.367c0.46,0,0.808,0.122,1.046,0.365
							c0.238,0.243,0.357,0.587,0.357,1.031v2.234c0,0.442-0.119,0.785-0.358,1.029c-0.239,0.244-0.587,0.367-1.044,0.367
							C377.866,321.182,377.517,321.059,377.279,320.813z M378.865,320.335c0.116-0.127,0.174-0.31,0.174-0.549v-2.234
							c0-0.239-0.057-0.422-0.172-0.549c-0.115-0.127-0.295-0.191-0.541-0.191c-0.246,0-0.426,0.064-0.541,0.191
							c-0.115,0.127-0.172,0.31-0.172,0.549v2.234c0,0.239,0.058,0.422,0.174,0.549c0.116,0.127,0.296,0.191,0.539,0.191
							C378.569,320.526,378.748,320.462,378.865,320.335z"/>
					</g>
					<g>
						
							<rect x="405.109" y="320.112" transform="matrix(0.7071 -0.7071 0.7071 0.7071 -109.6175 384.8496)" style="opacity:0.53;fill:#FFFFFF;" width="9.263" height="9.263"/>
						
							<rect x="413.41" y="320.112" transform="matrix(0.7071 -0.7071 0.7071 0.7071 -107.1861 390.7192)" style="opacity:0.53;fill:#FFFFFF;" width="9.263" height="9.263"/>
					</g>
					<g>
						<path style="fill:#FFFFFF;" d="M326.918,287.078c0,0-0.119-0.07-0.358-0.209c-0.238-0.14-0.424-0.338-0.555-0.594
							c-0.131-0.257-0.197-0.554-0.197-0.891v-1.248c0-0.338,0.066-0.635,0.197-0.891c0.131-0.256,0.316-0.455,0.555-0.596
							c0.239-0.141,0.516-0.211,0.83-0.211c0.261,0,0.501,0.056,0.72,0.167c0.218,0.111,0.402,0.269,0.548,0.474
							c0.147,0.204,0.247,0.441,0.299,0.71h-0.653c-0.04-0.142-0.106-0.268-0.199-0.38c-0.093-0.111-0.202-0.197-0.327-0.258
							c-0.125-0.06-0.255-0.091-0.388-0.091c-0.185,0-0.348,0.045-0.488,0.134c-0.14,0.09-0.248,0.215-0.325,0.377
							c-0.078,0.162-0.116,0.35-0.116,0.565v1.248c0,0.213,0.038,0.4,0.116,0.563c0.077,0.163,0.185,0.288,0.325,0.377
							c0.14,0.089,0.302,0.133,0.488,0.133c0.135,0,0.266-0.028,0.39-0.084c0.123-0.056,0.232-0.14,0.325-0.25
							c0.092-0.11,0.159-0.242,0.199-0.394h0.653c-0.052,0.269-0.152,0.506-0.3,0.71c-0.148,0.204-0.331,0.362-0.551,0.474
							c-0.219,0.112-0.457,0.167-0.716,0.167C327.076,287.078,326.918,287.078,326.918,287.078z"/>
						<path style="fill:#FFFFFF;" d="M329.802,282.48h0.638v4.55h-0.638V282.48z M330.08,284.501h1.552
							c0.12,0,0.228-0.029,0.322-0.087c0.094-0.059,0.166-0.141,0.217-0.249c0.051-0.107,0.077-0.231,0.077-0.37
							c0-0.139-0.026-0.263-0.077-0.371c-0.051-0.107-0.123-0.19-0.216-0.249c-0.093-0.059-0.201-0.087-0.323-0.087h-1.552v-0.607
							h1.526c0.263,0,0.493,0.054,0.693,0.163c0.199,0.108,0.353,0.262,0.463,0.461c0.109,0.199,0.164,0.429,0.164,0.69
							c0,0.26-0.055,0.49-0.166,0.689c-0.11,0.199-0.265,0.353-0.464,0.461c-0.2,0.109-0.429,0.163-0.69,0.163h-1.526V284.501z
							 M331.318,284.967l0.635-0.144l1.163,2.208h-0.757L331.318,284.967z"/>
						<path style="fill:#FFFFFF;" d="M333.977,282.484h0.638v4.547h-0.638V282.484z M334.286,282.484h2.611v0.607h-2.611V282.484z
							 M334.286,284.469h2.267v0.607h-2.267V284.469z M334.286,286.424h2.611v0.607h-2.611V286.424z"/>
						<path style="fill:#FFFFFF;" d="M337.805,282.484h0.638v4.547h-0.638V282.484z M338.236,286.424h1.028
							c0.336,0,0.596-0.087,0.78-0.261c0.185-0.174,0.277-0.419,0.277-0.737v-1.338c0-0.317-0.092-0.563-0.277-0.737
							c-0.185-0.174-0.445-0.261-0.78-0.261h-1.028v-0.607h1.01c0.364,0,0.676,0.064,0.935,0.191
							c0.259,0.127,0.455,0.313,0.591,0.557c0.135,0.244,0.203,0.538,0.203,0.882v1.288c0,0.344-0.068,0.638-0.203,0.882
							c-0.136,0.244-0.333,0.43-0.593,0.557c-0.259,0.127-0.572,0.191-0.937,0.191h-1.007V286.424z"/>
						<path style="fill:#FFFFFF;" d="M342.582,287.031h-0.638v-4.547h0.638V287.031z"/>
						<path style="fill:#FFFFFF;" d="M343.332,282.484h3.209v0.607h-3.209V282.484z M344.618,282.856h0.638v4.175h-0.638V282.856z"
							/>
						<path style="fill:#FFFFFF;" d="M349.777,287.078c0,0-0.119-0.07-0.358-0.209c-0.238-0.14-0.424-0.338-0.555-0.594
							c-0.131-0.257-0.197-0.554-0.197-0.891v-1.248c0-0.338,0.066-0.635,0.197-0.891c0.131-0.256,0.316-0.455,0.555-0.596
							c0.239-0.141,0.516-0.211,0.83-0.211c0.261,0,0.5,0.056,0.72,0.167c0.219,0.111,0.402,0.269,0.548,0.474
							c0.147,0.204,0.247,0.441,0.299,0.71h-0.654c-0.04-0.142-0.106-0.268-0.199-0.38c-0.093-0.111-0.202-0.197-0.327-0.258
							c-0.125-0.06-0.255-0.091-0.388-0.091c-0.185,0-0.348,0.045-0.488,0.134c-0.14,0.09-0.248,0.215-0.325,0.377
							c-0.078,0.162-0.116,0.35-0.116,0.565v1.248c0,0.213,0.038,0.4,0.116,0.563c0.077,0.163,0.185,0.288,0.325,0.377
							c0.14,0.089,0.302,0.133,0.488,0.133c0.135,0,0.266-0.028,0.39-0.084c0.123-0.056,0.232-0.14,0.325-0.25
							c0.092-0.11,0.159-0.242,0.199-0.394h0.654c-0.052,0.269-0.152,0.506-0.3,0.71c-0.148,0.204-0.331,0.362-0.551,0.474
							c-0.219,0.112-0.457,0.167-0.716,0.167C349.935,287.078,349.777,287.078,349.777,287.078z"/>
						<path style="fill:#FFFFFF;" d="M353.774,282.484h0.544l1.676,4.547h-0.688l-1.26-3.668l-1.26,3.668h-0.688L353.774,282.484z
							 M352.87,285.426h2.392v0.607h-2.392V285.426z"/>
						<path style="fill:#FFFFFF;" d="M356.683,282.48h0.638v4.55h-0.638V282.48z M356.961,284.501h1.551
							c0.121,0,0.228-0.029,0.322-0.087c0.094-0.059,0.166-0.141,0.217-0.249c0.051-0.107,0.077-0.231,0.077-0.37
							c0-0.139-0.026-0.263-0.077-0.371c-0.051-0.107-0.123-0.19-0.216-0.249c-0.093-0.059-0.201-0.087-0.324-0.087h-1.551v-0.607
							h1.526c0.263,0,0.493,0.054,0.693,0.163c0.199,0.108,0.353,0.262,0.463,0.461c0.109,0.199,0.163,0.429,0.163,0.69
							c0,0.26-0.055,0.49-0.166,0.689c-0.11,0.199-0.265,0.353-0.464,0.461c-0.199,0.109-0.429,0.163-0.69,0.163h-1.526V284.501z
							 M358.199,284.967l0.635-0.144l1.163,2.208h-0.757L358.199,284.967z"/>
						<path style="fill:#FFFFFF;" d="M360.858,282.484h0.638v4.547h-0.638V282.484z M361.289,286.424h1.029
							c0.336,0,0.596-0.087,0.78-0.261c0.185-0.174,0.277-0.419,0.277-0.737v-1.338c0-0.317-0.092-0.563-0.277-0.737
							c-0.185-0.174-0.445-0.261-0.78-0.261h-1.029v-0.607h1.01c0.364,0,0.676,0.064,0.935,0.191
							c0.259,0.127,0.455,0.313,0.591,0.557c0.135,0.244,0.203,0.538,0.203,0.882v1.288c0,0.344-0.068,0.638-0.203,0.882
							c-0.136,0.244-0.333,0.43-0.593,0.557c-0.259,0.127-0.572,0.191-0.937,0.191h-1.007V286.424z"/>
					</g>
				</g>
				<g>
					<g>
						
							<linearGradient id="SVGID_00000093898844526176697370000013033524321719096200_" gradientUnits="userSpaceOnUse" x1="352.395" y1="216.2735" x2="398.3981" y2="216.2735" gradientTransform="matrix(0.9981 -0.0616 0.0616 0.9981 -12.567 39.985)">
							<stop  offset="0.1175" style="stop-color:#FCD301"/>
							<stop  offset="0.8525" style="stop-color:#FCA601"/>
						</linearGradient>
						
							<circle style="fill:url(#SVGID_00000093898844526176697370000013033524321719096200_);" cx="376.769" cy="232.641" r="22.321"/>
						
							<linearGradient id="SVGID_00000111158555017641062380000009079746219717191612_" gradientUnits="userSpaceOnUse" x1="359.4409" y1="218.7899" x2="399.0521" y2="218.7899" gradientTransform="matrix(0.9981 -0.0616 0.0616 0.9981 -12.567 39.985)">
							<stop  offset="0.1175" style="stop-color:#FCD301"/>
							<stop  offset="0.8525" style="stop-color:#FCA601"/>
						</linearGradient>
						<path style="opacity:0.5;fill:url(#SVGID_00000111158555017641062380000009079746219717191612_);" d="M399.049,231.264
							c0.76,12.303-8.602,22.898-20.906,23.657c-6.956,0.43-13.366-2.378-17.76-7.124c4.034,2.898,9.05,4.473,14.387,4.143
							c12.303-0.76,21.665-11.354,20.906-23.657c-0.33-5.337-2.51-10.121-5.882-13.768
							C395.045,218.291,398.62,224.307,399.049,231.264z"/>
						
							<linearGradient id="SVGID_00000010295297478581153250000010811407730136713605_" gradientUnits="userSpaceOnUse" x1="392.6548" y1="233.8153" x2="361.6886" y2="199.7054" gradientTransform="matrix(0.9981 -0.0616 0.0616 0.9981 -12.567 39.985)">
							<stop  offset="0" style="stop-color:#FC8301"/>
							<stop  offset="0.7925" style="stop-color:#FCA401"/>
						</linearGradient>
						
							<circle style="fill:url(#SVGID_00000010295297478581153250000010811407730136713605_);" cx="376.769" cy="232.641" r="19.02"/>
						
							<linearGradient id="SVGID_00000114759772960445441270000000364445672944173711_" gradientUnits="userSpaceOnUse" x1="356.9792" y1="216.2735" x2="394.3162" y2="216.2735" gradientTransform="matrix(0.9981 -0.0616 0.0616 0.9981 -12.567 39.985)">
							<stop  offset="0.1175" style="stop-color:#FCD301"/>
							<stop  offset="0.8525" style="stop-color:#FCA601"/>
						</linearGradient>
						
							<circle style="fill:url(#SVGID_00000114759772960445441270000000364445672944173711_);" cx="376.769" cy="232.641" r="18.116"/>
						
							<linearGradient id="SVGID_00000005975602950764261250000016226190541166395326_" gradientUnits="userSpaceOnUse" x1="354.4089" y1="217.2364" x2="397.1284" y2="217.2364" gradientTransform="matrix(0.9981 -0.0616 0.0616 0.9981 -12.567 39.985)">
							<stop  offset="0.1175" style="stop-color:#FCD301"/>
							<stop  offset="0.8525" style="stop-color:#FCA601"/>
						</linearGradient>
						<path style="opacity:0.5;fill:url(#SVGID_00000005975602950764261250000016226190541166395326_);" d="M397.689,240.447
							c-2.993,7.999-10.471,13.913-19.545,14.474c-12.303,0.76-22.893-8.603-23.653-20.906c-0.561-9.079,4.384-17.223,11.96-21.173
							c-1.062,2.844-1.56,5.955-1.361,9.179c0.76,12.303,11.349,21.666,23.653,20.906
							C391.971,242.728,394.997,241.851,397.689,240.447z"/>
						
							<linearGradient id="SVGID_00000060030503248396616290000013620991429815094959_" gradientUnits="userSpaceOnUse" x1="354.4089" y1="216.2743" x2="399.0521" y2="216.2743" gradientTransform="matrix(0.9981 -0.0616 0.0616 0.9981 -12.567 39.985)">
							<stop  offset="0.1175" style="stop-color:#FCD301"/>
							<stop  offset="0.8525" style="stop-color:#FCA601"/>
						</linearGradient>
						<path style="opacity:0.5;fill:url(#SVGID_00000060030503248396616290000013620991429815094959_);" d="M375.392,210.363
							c-12.303,0.76-21.661,11.349-20.901,23.652c0.76,12.303,11.349,21.666,23.653,20.906c12.303-0.76,21.665-11.354,20.906-23.657
							S387.695,209.603,375.392,210.363z M378.051,253.429c-11.48,0.709-21.359-8.022-22.069-19.506
							c-0.709-11.48,8.022-21.359,19.501-22.068c11.484-0.709,21.364,8.021,22.073,19.501
							C398.266,242.84,389.536,252.72,378.051,253.429z"/>
						
							<linearGradient id="SVGID_00000029009434200036460720000013184034010976182946_" gradientUnits="userSpaceOnUse" x1="380.787" y1="195.9568" x2="380.787" y2="221.3183" gradientTransform="matrix(0.9981 -0.0616 0.0616 0.9981 -12.567 39.985)">
							<stop  offset="0.1175" style="stop-color:#FCD301"/>
							<stop  offset="0.8525" style="stop-color:#FCA601"/>
						</linearGradient>
						<path style="opacity:0.21;fill:url(#SVGID_00000029009434200036460720000013184034010976182946_);" d="M382.687,216.717
							c4.801,1.648,8.701,5.714,10.15,10.579c0.647,2.172,0.794,4.633-0.317,6.608c-1.111,1.975-3.778,3.16-5.768,2.076
							c-1.359-0.74-2.063-2.25-2.874-3.567c-2.007-3.256-5.178-5.777-8.802-6.999c-1.771-0.597-3.666-0.904-5.271-1.862
							c-1.155-0.689-2.674-2.821-2.361-3.922c0.293-1.029,2.495-1.933,3.549-2.391C374.65,215.648,378.904,215.418,382.687,216.717z
							"/>
					</g>
					
						<linearGradient id="SVGID_00000163751119367090144630000017068888440948359061_" gradientUnits="userSpaceOnUse" x1="369.6156" y1="216.2742" x2="383.8458" y2="216.2742" gradientTransform="matrix(0.9981 -0.0616 0.0616 0.9981 -12.567 39.985)">
						<stop  offset="0.1175" style="stop-color:#FCD301"/>
						<stop  offset="0.8525" style="stop-color:#FCA601"/>
					</linearGradient>
					<path style="opacity:0.5;fill:url(#SVGID_00000163751119367090144630000017068888440948359061_);" d="M383.188,233.597
						c-0.561-0.77-1.236-1.312-2.026-1.626c-0.789-0.314-1.762-0.562-2.916-0.743c-0.049-0.007-0.095-0.014-0.139-0.021
						c-0.044-0.007-0.091-0.014-0.139-0.02c-0.049-0.006-0.093-0.014-0.132-0.021c-0.039-0.007-0.078-0.014-0.118-0.022
						c-0.978-0.152-1.751-0.308-2.318-0.467c-0.567-0.159-1.047-0.432-1.439-0.82c-0.392-0.387-0.61-0.943-0.655-1.667l-0.001-0.014
						c-0.065-1.052,0.204-1.861,0.809-2.426c0.605-0.565,1.544-0.887,2.819-0.966c0.665-0.041,1.346,0.036,2.042,0.23
						c0.695,0.195,1.414,0.511,2.159,0.95l1.63-2.557c-0.663-0.385-1.327-0.7-1.992-0.945c-0.664-0.245-1.332-0.417-2.001-0.516
						c-0.318-0.047-0.638-0.076-0.957-0.091l-0.148-2.406l-2.954,0.182l0.154,2.493c-0.713,0.16-1.352,0.38-1.899,0.674
						c-0.99,0.531-1.711,1.278-2.165,2.241c-0.454,0.963-0.637,2.149-0.55,3.558l0.001,0.014c0.089,1.448,0.443,2.548,1.061,3.299
						c0.618,0.752,1.337,1.252,2.157,1.502c0.82,0.25,1.883,0.456,3.192,0.617c0.049,0.007,0.1,0.013,0.154,0.02
						c0.053,0.006,0.105,0.013,0.154,0.02c0.03,0.008,0.056,0.011,0.08,0.01s0.051,0.002,0.08,0.01
						c0.82,0.104,1.498,0.242,2.032,0.412c0.534,0.171,0.977,0.448,1.331,0.833c0.353,0.385,0.551,0.925,0.594,1.62l0.001,0.014
						c0.067,1.091-0.22,1.925-0.862,2.502c-0.643,0.578-1.65,0.909-3.02,0.993c-0.995,0.061-1.927-0.092-2.797-0.46
						c-0.871-0.367-1.679-0.95-2.426-1.747l-1.835,2.526c0.679,0.636,1.396,1.157,2.153,1.56c0.757,0.404,1.559,0.694,2.408,0.869
						c0.849,0.175,1.273,0.263,1.273,0.263s0.068-0.004,0.203-0.012l0.145,2.345l2.954-0.182l-0.152-2.461
						c0.828-0.159,1.566-0.384,2.188-0.695c1.029-0.514,1.781-1.239,2.257-2.174c0.475-0.935,0.671-2.083,0.586-3.444l-0.002-0.029
						C384.072,235.442,383.749,234.367,383.188,233.597z"/>
				</g>
			</g>
			<g style="opacity:0.51;">
				
					<linearGradient id="SVGID_00000147209259008465206880000015210594133808497027_" gradientUnits="userSpaceOnUse" x1="305.93" y1="199.16" x2="448.47" y2="199.16">
					<stop  offset="0" style="stop-color:#FFFFFF;stop-opacity:0"/>
					<stop  offset="0.44" style="stop-color:#FFFFFF"/>
					<stop  offset="0.9925" style="stop-color:#FFFFFF;stop-opacity:0"/>
				</linearGradient>
				<path style="fill:url(#SVGID_00000147209259008465206880000015210594133808497027_);" d="M448.47,247.85v24.74L305.93,130.05
					c0.13-2.4,2.12-4.32,4.55-4.32h15.87L448.47,247.85z"/>
				
					<linearGradient id="SVGID_00000114037400029989786950000003485676055062598273_" gradientUnits="userSpaceOnUse" x1="305.92" y1="262.135" x2="448.47" y2="262.135">
					<stop  offset="0" style="stop-color:#FFFFFF;stop-opacity:0"/>
					<stop  offset="0.44" style="stop-color:#FFFFFF"/>
					<stop  offset="0.9925" style="stop-color:#FFFFFF;stop-opacity:0"/>
				</linearGradient>
				<polygon style="fill:url(#SVGID_00000114037400029989786950000003485676055062598273_);" points="448.47,311.35 448.47,355.47 
					305.92,212.92 305.92,168.8 				"/>
				
					<linearGradient id="SVGID_00000104698111301081464980000013878724585106417316_" gradientUnits="userSpaceOnUse" x1="305.92" y1="336.765" x2="407.85" y2="336.765">
					<stop  offset="0" style="stop-color:#FFFFFF;stop-opacity:0"/>
					<stop  offset="0.44" style="stop-color:#FFFFFF"/>
					<stop  offset="0.9925" style="stop-color:#FFFFFF;stop-opacity:0"/>
				</linearGradient>
				<polygon style="fill:url(#SVGID_00000104698111301081464980000013878724585106417316_);" points="407.85,387.73 380.73,387.73 
					305.92,312.92 305.92,285.8 				"/>
			</g>
		</g>
	</g>
	<g>
		<g>
			<g>
				
					<linearGradient id="SVGID_00000005956955209709025570000009172070160292852614_" gradientUnits="userSpaceOnUse" x1="131.8854" y1="349.5107" x2="211.3165" y2="434.638">
					<stop  offset="0.1175" style="stop-color:#FCD301"/>
					<stop  offset="0.8525" style="stop-color:#FCA601"/>
				</linearGradient>
				
					<rect x="109.945" y="368.732" style="fill:url(#SVGID_00000005956955209709025570000009172070160292852614_);" width="101.213" height="23"/>
				<g>
					
						<linearGradient id="SVGID_00000047026633171013138880000017029892339008312235_" gradientUnits="userSpaceOnUse" x1="110.9546" y1="372.803" x2="130.1629" y2="393.3888">
						<stop  offset="0.1175" style="stop-color:#FCD301"/>
						<stop  offset="0.8525" style="stop-color:#FCA601"/>
					</linearGradient>
					
						<rect x="114.993" y="368.732" style="opacity:0.5;fill:url(#SVGID_00000047026633171013138880000017029892339008312235_);" width="5.787" height="23"/>
					
						<linearGradient id="SVGID_00000094600712134835966450000005511507127286899614_" gradientUnits="userSpaceOnUse" x1="123.6369" y1="372.803" x2="142.8453" y2="393.3888">
						<stop  offset="0.1175" style="stop-color:#FCD301"/>
						<stop  offset="0.8525" style="stop-color:#FCA601"/>
					</linearGradient>
					
						<rect x="127.675" y="368.732" style="opacity:0.5;fill:url(#SVGID_00000094600712134835966450000005511507127286899614_);" width="5.787" height="23"/>
					
						<linearGradient id="SVGID_00000018207556074016408770000010872013644734276531_" gradientUnits="userSpaceOnUse" x1="136.3194" y1="372.803" x2="155.5277" y2="393.3888">
						<stop  offset="0.1175" style="stop-color:#FCD301"/>
						<stop  offset="0.8525" style="stop-color:#FCA601"/>
					</linearGradient>
					
						<rect x="140.358" y="368.732" style="opacity:0.5;fill:url(#SVGID_00000018207556074016408770000010872013644734276531_);" width="5.787" height="23"/>
					
						<linearGradient id="SVGID_00000156553191838052964060000018139289779052057508_" gradientUnits="userSpaceOnUse" x1="149.0018" y1="372.803" x2="168.2101" y2="393.3888">
						<stop  offset="0.1175" style="stop-color:#FCD301"/>
						<stop  offset="0.8525" style="stop-color:#FCA601"/>
					</linearGradient>
					
						<rect x="153.04" y="368.732" style="opacity:0.5;fill:url(#SVGID_00000156553191838052964060000018139289779052057508_);" width="5.787" height="23"/>
					
						<linearGradient id="SVGID_00000044138225969949778380000000153839245080044163_" gradientUnits="userSpaceOnUse" x1="161.6842" y1="372.803" x2="180.8925" y2="393.3888">
						<stop  offset="0.1175" style="stop-color:#FCD301"/>
						<stop  offset="0.8525" style="stop-color:#FCA601"/>
					</linearGradient>
					
						<rect x="165.723" y="368.732" style="opacity:0.5;fill:url(#SVGID_00000044138225969949778380000000153839245080044163_);" width="5.787" height="23"/>
					
						<linearGradient id="SVGID_00000037686823140809019130000003467687252184248229_" gradientUnits="userSpaceOnUse" x1="174.3666" y1="372.803" x2="193.5749" y2="393.3888">
						<stop  offset="0.1175" style="stop-color:#FCD301"/>
						<stop  offset="0.8525" style="stop-color:#FCA601"/>
					</linearGradient>
					
						<rect x="178.405" y="368.732" style="opacity:0.5;fill:url(#SVGID_00000037686823140809019130000003467687252184248229_);" width="5.787" height="23"/>
					
						<linearGradient id="SVGID_00000105399830457589171310000013424552916550748318_" gradientUnits="userSpaceOnUse" x1="187.049" y1="372.803" x2="206.2573" y2="393.3888">
						<stop  offset="0.1175" style="stop-color:#FCD301"/>
						<stop  offset="0.8525" style="stop-color:#FCA601"/>
					</linearGradient>
					
						<rect x="191.087" y="368.732" style="opacity:0.5;fill:url(#SVGID_00000105399830457589171310000013424552916550748318_);" width="5.787" height="23"/>
					
						<linearGradient id="SVGID_00000109724572535449357620000004710539015389879433_" gradientUnits="userSpaceOnUse" x1="199.7314" y1="372.803" x2="218.9397" y2="393.3888">
						<stop  offset="0.1175" style="stop-color:#FCD301"/>
						<stop  offset="0.8525" style="stop-color:#FCA601"/>
					</linearGradient>
					
						<rect x="203.77" y="368.732" style="opacity:0.5;fill:url(#SVGID_00000109724572535449357620000004710539015389879433_);" width="5.787" height="23"/>
				</g>
				
					<linearGradient id="SVGID_00000052801011379743364070000012638986562258005165_" gradientUnits="userSpaceOnUse" x1="127.1967" y1="353.8857" x2="206.6278" y2="439.013">
					<stop  offset="0.1175" style="stop-color:#FCD301"/>
					<stop  offset="0.8525" style="stop-color:#FCA601"/>
				</linearGradient>
				<path style="opacity:0.5;fill:url(#SVGID_00000052801011379743364070000012638986562258005165_);" d="M211.158,387.532v4.2
					H109.945v-23h15.448C132.108,378.002,152.558,394.522,211.158,387.532z"/>
				
					<linearGradient id="SVGID_00000180365408196871694570000002064170413995283376_" gradientUnits="userSpaceOnUse" x1="136.6451" y1="344.8618" x2="202.8874" y2="415.8544">
					<stop  offset="0.1175" style="stop-color:#FCD301"/>
					<stop  offset="0.8525" style="stop-color:#FCA601"/>
				</linearGradient>
				
					<rect x="109.945" y="368.732" style="opacity:0.5;fill:url(#SVGID_00000180365408196871694570000002064170413995283376_);" width="101.213" height="3.5"/>
				
					<linearGradient id="SVGID_00000165934325499893555290000002496871419267666092_" gradientUnits="userSpaceOnUse" x1="111.4222" y1="380.3989" x2="162.0496" y2="380.3989">
					<stop  offset="0" style="stop-color:#FFFFFF;stop-opacity:0"/>
					<stop  offset="0.44" style="stop-color:#FFFFFF"/>
					<stop  offset="0.9925" style="stop-color:#FFFFFF;stop-opacity:0"/>
				</linearGradient>
				
					<rect x="113.639" y="371.066" style="opacity:0.49;fill:url(#SVGID_00000165934325499893555290000002496871419267666092_);" width="49.129" height="18.667"/>
			</g>
			<g>
				
					<linearGradient id="SVGID_00000178913834748793914500000009988893020649806480_" gradientUnits="userSpaceOnUse" x1="131.8854" y1="326.5107" x2="211.3165" y2="411.638">
					<stop  offset="0.1175" style="stop-color:#FCD301"/>
					<stop  offset="0.8525" style="stop-color:#FCA601"/>
				</linearGradient>
				
					<rect x="109.945" y="345.732" style="fill:url(#SVGID_00000178913834748793914500000009988893020649806480_);" width="101.213" height="23"/>
				<g>
					
						<linearGradient id="SVGID_00000022540698792653181490000005512739763045192629_" gradientUnits="userSpaceOnUse" x1="110.9546" y1="349.803" x2="130.1629" y2="370.3888">
						<stop  offset="0.1175" style="stop-color:#FCD301"/>
						<stop  offset="0.8525" style="stop-color:#FCA601"/>
					</linearGradient>
					
						<rect x="114.993" y="345.732" style="opacity:0.5;fill:url(#SVGID_00000022540698792653181490000005512739763045192629_);" width="5.787" height="23"/>
					
						<linearGradient id="SVGID_00000164477336067770254260000001946302263000390580_" gradientUnits="userSpaceOnUse" x1="123.6369" y1="349.803" x2="142.8453" y2="370.3888">
						<stop  offset="0.1175" style="stop-color:#FCD301"/>
						<stop  offset="0.8525" style="stop-color:#FCA601"/>
					</linearGradient>
					
						<rect x="127.675" y="345.732" style="opacity:0.5;fill:url(#SVGID_00000164477336067770254260000001946302263000390580_);" width="5.787" height="23"/>
					
						<linearGradient id="SVGID_00000150102348119553105100000002988848778544048256_" gradientUnits="userSpaceOnUse" x1="136.3194" y1="349.803" x2="155.5277" y2="370.3888">
						<stop  offset="0.1175" style="stop-color:#FCD301"/>
						<stop  offset="0.8525" style="stop-color:#FCA601"/>
					</linearGradient>
					
						<rect x="140.358" y="345.732" style="opacity:0.5;fill:url(#SVGID_00000150102348119553105100000002988848778544048256_);" width="5.787" height="23"/>
					
						<linearGradient id="SVGID_00000002379817343877321760000002519459537159552932_" gradientUnits="userSpaceOnUse" x1="149.0018" y1="349.803" x2="168.2101" y2="370.3888">
						<stop  offset="0.1175" style="stop-color:#FCD301"/>
						<stop  offset="0.8525" style="stop-color:#FCA601"/>
					</linearGradient>
					
						<rect x="153.04" y="345.732" style="opacity:0.5;fill:url(#SVGID_00000002379817343877321760000002519459537159552932_);" width="5.787" height="23"/>
					
						<linearGradient id="SVGID_00000133519172668785658950000001535153263256912774_" gradientUnits="userSpaceOnUse" x1="161.6842" y1="349.803" x2="180.8925" y2="370.3888">
						<stop  offset="0.1175" style="stop-color:#FCD301"/>
						<stop  offset="0.8525" style="stop-color:#FCA601"/>
					</linearGradient>
					
						<rect x="165.723" y="345.732" style="opacity:0.5;fill:url(#SVGID_00000133519172668785658950000001535153263256912774_);" width="5.787" height="23"/>
					
						<linearGradient id="SVGID_00000002369481787558333110000000741120161297319329_" gradientUnits="userSpaceOnUse" x1="174.3666" y1="349.803" x2="193.5749" y2="370.3888">
						<stop  offset="0.1175" style="stop-color:#FCD301"/>
						<stop  offset="0.8525" style="stop-color:#FCA601"/>
					</linearGradient>
					
						<rect x="178.405" y="345.732" style="opacity:0.5;fill:url(#SVGID_00000002369481787558333110000000741120161297319329_);" width="5.787" height="23"/>
					
						<linearGradient id="SVGID_00000172434969857993529200000012857544364325028023_" gradientUnits="userSpaceOnUse" x1="187.049" y1="349.803" x2="206.2573" y2="370.3888">
						<stop  offset="0.1175" style="stop-color:#FCD301"/>
						<stop  offset="0.8525" style="stop-color:#FCA601"/>
					</linearGradient>
					
						<rect x="191.087" y="345.732" style="opacity:0.5;fill:url(#SVGID_00000172434969857993529200000012857544364325028023_);" width="5.787" height="23"/>
					
						<linearGradient id="SVGID_00000088837537556731992940000013049295967669032377_" gradientUnits="userSpaceOnUse" x1="199.7314" y1="349.803" x2="218.9397" y2="370.3888">
						<stop  offset="0.1175" style="stop-color:#FCD301"/>
						<stop  offset="0.8525" style="stop-color:#FCA601"/>
					</linearGradient>
					
						<rect x="203.77" y="345.732" style="opacity:0.5;fill:url(#SVGID_00000088837537556731992940000013049295967669032377_);" width="5.787" height="23"/>
				</g>
				
					<linearGradient id="SVGID_00000149342074644883176410000014370672134225890971_" gradientUnits="userSpaceOnUse" x1="127.1967" y1="330.8857" x2="206.6278" y2="416.013">
					<stop  offset="0.1175" style="stop-color:#FCD301"/>
					<stop  offset="0.8525" style="stop-color:#FCA601"/>
				</linearGradient>
				<path style="opacity:0.5;fill:url(#SVGID_00000149342074644883176410000014370672134225890971_);" d="M211.158,364.532v4.2
					H109.945v-23h15.448C132.108,355.002,152.558,371.522,211.158,364.532z"/>
				
					<linearGradient id="SVGID_00000030468594211382900440000001968721539916137397_" gradientUnits="userSpaceOnUse" x1="136.6451" y1="321.8618" x2="202.8874" y2="392.8544">
					<stop  offset="0.1175" style="stop-color:#FCD301"/>
					<stop  offset="0.8525" style="stop-color:#FCA601"/>
				</linearGradient>
				
					<rect x="109.945" y="345.732" style="opacity:0.5;fill:url(#SVGID_00000030468594211382900440000001968721539916137397_);" width="101.213" height="3.5"/>
				
					<linearGradient id="SVGID_00000124142561629326674630000003754499546356510121_" gradientUnits="userSpaceOnUse" x1="111.4222" y1="357.3989" x2="162.0496" y2="357.3989">
					<stop  offset="0" style="stop-color:#FFFFFF;stop-opacity:0"/>
					<stop  offset="0.44" style="stop-color:#FFFFFF"/>
					<stop  offset="0.9925" style="stop-color:#FFFFFF;stop-opacity:0"/>
				</linearGradient>
				
					<rect x="113.639" y="348.066" style="opacity:0.49;fill:url(#SVGID_00000124142561629326674630000003754499546356510121_);" width="49.129" height="18.667"/>
			</g>
			<g>
				
					<linearGradient id="SVGID_00000045611503187240325750000010974872445472040604_" gradientUnits="userSpaceOnUse" x1="131.8854" y1="303.5107" x2="211.3165" y2="388.638">
					<stop  offset="0.1175" style="stop-color:#FCD301"/>
					<stop  offset="0.8525" style="stop-color:#FCA601"/>
				</linearGradient>
				
					<rect x="109.945" y="322.732" style="fill:url(#SVGID_00000045611503187240325750000010974872445472040604_);" width="101.213" height="23"/>
				<g>
					
						<linearGradient id="SVGID_00000078034203980498631840000003347675284286437783_" gradientUnits="userSpaceOnUse" x1="110.9546" y1="326.803" x2="130.1629" y2="347.3888">
						<stop  offset="0.1175" style="stop-color:#FCD301"/>
						<stop  offset="0.8525" style="stop-color:#FCA601"/>
					</linearGradient>
					
						<rect x="114.993" y="322.732" style="opacity:0.5;fill:url(#SVGID_00000078034203980498631840000003347675284286437783_);" width="5.787" height="23"/>
					
						<linearGradient id="SVGID_00000020382260264811176340000016954922922357571727_" gradientUnits="userSpaceOnUse" x1="123.6369" y1="326.803" x2="142.8453" y2="347.3888">
						<stop  offset="0.1175" style="stop-color:#FCD301"/>
						<stop  offset="0.8525" style="stop-color:#FCA601"/>
					</linearGradient>
					
						<rect x="127.675" y="322.732" style="opacity:0.5;fill:url(#SVGID_00000020382260264811176340000016954922922357571727_);" width="5.787" height="23"/>
					
						<linearGradient id="SVGID_00000023975624413280312460000009262638376967062962_" gradientUnits="userSpaceOnUse" x1="136.3194" y1="326.803" x2="155.5277" y2="347.3888">
						<stop  offset="0.1175" style="stop-color:#FCD301"/>
						<stop  offset="0.8525" style="stop-color:#FCA601"/>
					</linearGradient>
					
						<rect x="140.358" y="322.732" style="opacity:0.5;fill:url(#SVGID_00000023975624413280312460000009262638376967062962_);" width="5.787" height="23"/>
					
						<linearGradient id="SVGID_00000005248767501683593480000018393961853635089315_" gradientUnits="userSpaceOnUse" x1="149.0018" y1="326.803" x2="168.2101" y2="347.3888">
						<stop  offset="0.1175" style="stop-color:#FCD301"/>
						<stop  offset="0.8525" style="stop-color:#FCA601"/>
					</linearGradient>
					
						<rect x="153.04" y="322.732" style="opacity:0.5;fill:url(#SVGID_00000005248767501683593480000018393961853635089315_);" width="5.787" height="23"/>
					
						<linearGradient id="SVGID_00000044880503110701516020000000626114920680180138_" gradientUnits="userSpaceOnUse" x1="161.6842" y1="326.803" x2="180.8925" y2="347.3888">
						<stop  offset="0.1175" style="stop-color:#FCD301"/>
						<stop  offset="0.8525" style="stop-color:#FCA601"/>
					</linearGradient>
					
						<rect x="165.723" y="322.732" style="opacity:0.5;fill:url(#SVGID_00000044880503110701516020000000626114920680180138_);" width="5.787" height="23"/>
					
						<linearGradient id="SVGID_00000160191928998458219840000009776988156364365495_" gradientUnits="userSpaceOnUse" x1="174.3666" y1="326.803" x2="193.5749" y2="347.3888">
						<stop  offset="0.1175" style="stop-color:#FCD301"/>
						<stop  offset="0.8525" style="stop-color:#FCA601"/>
					</linearGradient>
					
						<rect x="178.405" y="322.732" style="opacity:0.5;fill:url(#SVGID_00000160191928998458219840000009776988156364365495_);" width="5.787" height="23"/>
					
						<linearGradient id="SVGID_00000031190562226101471300000018346299635203247237_" gradientUnits="userSpaceOnUse" x1="187.049" y1="326.803" x2="206.2573" y2="347.3888">
						<stop  offset="0.1175" style="stop-color:#FCD301"/>
						<stop  offset="0.8525" style="stop-color:#FCA601"/>
					</linearGradient>
					
						<rect x="191.087" y="322.732" style="opacity:0.5;fill:url(#SVGID_00000031190562226101471300000018346299635203247237_);" width="5.787" height="23"/>
					
						<linearGradient id="SVGID_00000108987713375401490260000013287586609024948648_" gradientUnits="userSpaceOnUse" x1="199.7314" y1="326.803" x2="218.9397" y2="347.3888">
						<stop  offset="0.1175" style="stop-color:#FCD301"/>
						<stop  offset="0.8525" style="stop-color:#FCA601"/>
					</linearGradient>
					
						<rect x="203.77" y="322.732" style="opacity:0.5;fill:url(#SVGID_00000108987713375401490260000013287586609024948648_);" width="5.787" height="23"/>
				</g>
				
					<linearGradient id="SVGID_00000103232613176196791820000012227980623401030818_" gradientUnits="userSpaceOnUse" x1="127.1967" y1="307.8857" x2="206.6278" y2="393.013">
					<stop  offset="0.1175" style="stop-color:#FCD301"/>
					<stop  offset="0.8525" style="stop-color:#FCA601"/>
				</linearGradient>
				<path style="opacity:0.5;fill:url(#SVGID_00000103232613176196791820000012227980623401030818_);" d="M211.158,341.532v4.2
					H109.945v-23h15.448C132.108,332.002,152.558,348.522,211.158,341.532z"/>
				
					<linearGradient id="SVGID_00000039132138523627016390000015026666471625595033_" gradientUnits="userSpaceOnUse" x1="136.6451" y1="298.8618" x2="202.8874" y2="369.8544">
					<stop  offset="0.1175" style="stop-color:#FCD301"/>
					<stop  offset="0.8525" style="stop-color:#FCA601"/>
				</linearGradient>
				
					<rect x="109.945" y="322.732" style="opacity:0.5;fill:url(#SVGID_00000039132138523627016390000015026666471625595033_);" width="101.213" height="3.5"/>
				
					<linearGradient id="SVGID_00000159431388493545438260000006470592344191566238_" gradientUnits="userSpaceOnUse" x1="111.4222" y1="334.3989" x2="162.0496" y2="334.3989">
					<stop  offset="0" style="stop-color:#FFFFFF;stop-opacity:0"/>
					<stop  offset="0.44" style="stop-color:#FFFFFF"/>
					<stop  offset="0.9925" style="stop-color:#FFFFFF;stop-opacity:0"/>
				</linearGradient>
				
					<rect x="113.639" y="325.066" style="opacity:0.49;fill:url(#SVGID_00000159431388493545438260000006470592344191566238_);" width="49.129" height="18.667"/>
			</g>
			<g>
				
					<linearGradient id="SVGID_00000103975332519554300400000011881881992831628726_" gradientUnits="userSpaceOnUse" x1="131.8854" y1="280.5107" x2="211.3165" y2="365.638">
					<stop  offset="0.1175" style="stop-color:#FCD301"/>
					<stop  offset="0.8525" style="stop-color:#FCA601"/>
				</linearGradient>
				
					<rect x="109.945" y="299.732" style="fill:url(#SVGID_00000103975332519554300400000011881881992831628726_);" width="101.213" height="23"/>
				<g>
					
						<linearGradient id="SVGID_00000051371060784564390530000002455760734454952621_" gradientUnits="userSpaceOnUse" x1="110.9546" y1="303.803" x2="130.1629" y2="324.3888">
						<stop  offset="0.1175" style="stop-color:#FCD301"/>
						<stop  offset="0.8525" style="stop-color:#FCA601"/>
					</linearGradient>
					
						<rect x="114.993" y="299.732" style="opacity:0.5;fill:url(#SVGID_00000051371060784564390530000002455760734454952621_);" width="5.787" height="23"/>
					
						<linearGradient id="SVGID_00000045583413940487945260000014727256996545804722_" gradientUnits="userSpaceOnUse" x1="123.6369" y1="303.803" x2="142.8453" y2="324.3888">
						<stop  offset="0.1175" style="stop-color:#FCD301"/>
						<stop  offset="0.8525" style="stop-color:#FCA601"/>
					</linearGradient>
					
						<rect x="127.675" y="299.732" style="opacity:0.5;fill:url(#SVGID_00000045583413940487945260000014727256996545804722_);" width="5.787" height="23"/>
					
						<linearGradient id="SVGID_00000163071930133815166070000011368449672467676562_" gradientUnits="userSpaceOnUse" x1="136.3194" y1="303.803" x2="155.5277" y2="324.3888">
						<stop  offset="0.1175" style="stop-color:#FCD301"/>
						<stop  offset="0.8525" style="stop-color:#FCA601"/>
					</linearGradient>
					
						<rect x="140.358" y="299.732" style="opacity:0.5;fill:url(#SVGID_00000163071930133815166070000011368449672467676562_);" width="5.787" height="23"/>
					
						<linearGradient id="SVGID_00000044892689049317592730000010278516975224003226_" gradientUnits="userSpaceOnUse" x1="149.0018" y1="303.803" x2="168.2101" y2="324.3888">
						<stop  offset="0.1175" style="stop-color:#FCD301"/>
						<stop  offset="0.8525" style="stop-color:#FCA601"/>
					</linearGradient>
					
						<rect x="153.04" y="299.732" style="opacity:0.5;fill:url(#SVGID_00000044892689049317592730000010278516975224003226_);" width="5.787" height="23"/>
					
						<linearGradient id="SVGID_00000130645465590913267500000002074504005504402826_" gradientUnits="userSpaceOnUse" x1="161.6842" y1="303.803" x2="180.8925" y2="324.3888">
						<stop  offset="0.1175" style="stop-color:#FCD301"/>
						<stop  offset="0.8525" style="stop-color:#FCA601"/>
					</linearGradient>
					
						<rect x="165.723" y="299.732" style="opacity:0.5;fill:url(#SVGID_00000130645465590913267500000002074504005504402826_);" width="5.787" height="23"/>
					
						<linearGradient id="SVGID_00000042703362228710304460000002244485796463366840_" gradientUnits="userSpaceOnUse" x1="174.3666" y1="303.803" x2="193.5749" y2="324.3888">
						<stop  offset="0.1175" style="stop-color:#FCD301"/>
						<stop  offset="0.8525" style="stop-color:#FCA601"/>
					</linearGradient>
					
						<rect x="178.405" y="299.732" style="opacity:0.5;fill:url(#SVGID_00000042703362228710304460000002244485796463366840_);" width="5.787" height="23"/>
					
						<linearGradient id="SVGID_00000016049872537045711460000017400070278613802667_" gradientUnits="userSpaceOnUse" x1="187.049" y1="303.803" x2="206.2573" y2="324.3888">
						<stop  offset="0.1175" style="stop-color:#FCD301"/>
						<stop  offset="0.8525" style="stop-color:#FCA601"/>
					</linearGradient>
					
						<rect x="191.087" y="299.732" style="opacity:0.5;fill:url(#SVGID_00000016049872537045711460000017400070278613802667_);" width="5.787" height="23"/>
					
						<linearGradient id="SVGID_00000093159429522490379130000000194268884375695283_" gradientUnits="userSpaceOnUse" x1="199.7314" y1="303.803" x2="218.9397" y2="324.3888">
						<stop  offset="0.1175" style="stop-color:#FCD301"/>
						<stop  offset="0.8525" style="stop-color:#FCA601"/>
					</linearGradient>
					
						<rect x="203.77" y="299.732" style="opacity:0.5;fill:url(#SVGID_00000093159429522490379130000000194268884375695283_);" width="5.787" height="23"/>
				</g>
				
					<linearGradient id="SVGID_00000023961727157996258600000012013550083137077656_" gradientUnits="userSpaceOnUse" x1="127.1967" y1="284.8857" x2="206.6278" y2="370.013">
					<stop  offset="0.1175" style="stop-color:#FCD301"/>
					<stop  offset="0.8525" style="stop-color:#FCA601"/>
				</linearGradient>
				<path style="opacity:0.5;fill:url(#SVGID_00000023961727157996258600000012013550083137077656_);" d="M211.158,318.532v4.2
					H109.945v-23h15.448C132.108,309.002,152.558,325.522,211.158,318.532z"/>
				
					<linearGradient id="SVGID_00000178892099674197202900000008889251319171576758_" gradientUnits="userSpaceOnUse" x1="136.6451" y1="275.8618" x2="202.8874" y2="346.8544">
					<stop  offset="0.1175" style="stop-color:#FCD301"/>
					<stop  offset="0.8525" style="stop-color:#FCA601"/>
				</linearGradient>
				
					<rect x="109.945" y="299.732" style="opacity:0.5;fill:url(#SVGID_00000178892099674197202900000008889251319171576758_);" width="101.213" height="3.5"/>
				
					<linearGradient id="SVGID_00000037667900141271782160000017079017445512410283_" gradientUnits="userSpaceOnUse" x1="111.4222" y1="311.3989" x2="162.0496" y2="311.3989">
					<stop  offset="0" style="stop-color:#FFFFFF;stop-opacity:0"/>
					<stop  offset="0.44" style="stop-color:#FFFFFF"/>
					<stop  offset="0.9925" style="stop-color:#FFFFFF;stop-opacity:0"/>
				</linearGradient>
				
					<rect x="113.639" y="302.066" style="opacity:0.49;fill:url(#SVGID_00000037667900141271782160000017079017445512410283_);" width="49.129" height="18.667"/>
			</g>
		</g>
		<g>
			<g>
				<path style="fill:#E29579;" d="M264.734,264.378c0.337-0.496-6.722-1.783-6.722-1.783s5.989,0.578,6.279,0.078
					c0.29-0.501-8.041-1.924-8.041-1.924s2.572-1.852,1.763-2.314c-0.81-0.462-4.138,0.402-5.332,0.9
					c-0.769,0.321-3.141,0.132-4.735-0.043c-3.425-0.577-22.036-3.749-45.475-9.806c-3.249-7.696-6.34-15.864-8.97-24.165
					c-0.736,0.209-1.473,0.425-2.21,0.658c-4.603,1.457-9.148,3.014-13.729,4.441c1.31,3.969,2.959,8.539,4.988,13.485
					c1.805,4.394,3.914,9.085,6.345,13.91c0.828,1.643,2.527,2.875,4.563,3.302c4.995,1.048,10.171,1.974,15.442,2.713
					c12.798,1.812,26.207,2.551,39.196,1.312l0.001-0.01c1.676,0.487,9.428,2.668,12.107,2.077c0.671-0.148-0.539-0.777-2.291-1.34
					c0,0,4.78,0.293,5.324,0.101c0.544-0.192-6.286-1.861-6.286-1.861S264.397,264.874,264.734,264.378z"/>
				<path style="fill:#FFAC42;" d="M176.422,203.073c0,0-5.525,3.457-5.276,11.635c0.249,8.178,7.855,26.587,7.855,26.587
					l17.445-8.802l-10.136-28.324C186.309,204.168,183.572,200.999,176.422,203.073z"/>
			</g>
			<g>
				<g>
					<g>
						<path style="fill:#E08665;" d="M225.752,370.257c-1.04-0.138-2.182-0.283-3.374-0.445c0.389,5.247,0.843,10.754,1.374,16.524
							c0.003,0.003,0.005,0.004,0.007,0.007l6.612,0.254c0,0,0.206-1.395,0.602-3.932c0.403-2.667,0.999-6.611,1.738-11.519
							C230.365,370.868,228.037,370.561,225.752,370.257z"/>
						<path style="fill:#00C2DB;" d="M243.947,391.732l-20.554-0.805c-0.19-0.008-0.36-0.16-0.407-0.382
							c-0.398-1.903-0.036-3.894,0.178-4.796c0.066-0.277,0.298-0.441,0.529-0.372c1.094,0.328,4.167,1.141,5.698,0.437
							c0.14-0.064,0.233-0.22,0.258-0.397c0.108-0.765,0.449-2.85,0.982-2.909c0.645-0.071,6.588,6.267,13.285,7.054
							c0.157,0.018,0.294,0.133,0.353,0.308c0.132,0.39,0.311,1.102,0.075,1.605C244.266,391.645,244.106,391.738,243.947,391.732z"
							/>
					</g>
					<path style="fill:#FFFFFF;" d="M158.215,251.92c0,0-8.37,14.77-7.558,32.876c0.336,7.493,5.903,13.721,13.303,14.95
						l55.255,9.174l3,70l9.75,0.25l10.688-71.108c0.959-6.379-1.736-12.757-6.978-16.515l-44.46-31.877L158.215,251.92z"/>
				</g>
				<g>
					<g>
						<g>
							<path style="fill:#E29579;" d="M245.288,356.438c-2.627,1.148-5.331,2.153-8.08,2.869c0.651,2.176,1.321,4.389,2.013,6.644
								c0.003,0.002,0.005,0.003,0.008,0.005l6.524-1.105c0,0-0.084-1.408-0.215-3.972
								C245.47,359.656,245.385,358.16,245.288,356.438z"/>
							<path style="fill:#00C2DB;" d="M260.094,367.099l-20.284,3.42c-0.188,0.032-0.385-0.083-0.476-0.29
								c-0.779-1.781-0.832-3.804-0.808-4.731c0.008-0.285,0.202-0.493,0.442-0.472c1.138,0.097,4.312,0.264,5.667-0.738
								c0.123-0.091,0.183-0.263,0.171-0.441c-0.051-0.771-0.144-2.882,0.365-3.048c0.616-0.202,7.731,4.786,14.448,4.185
								c0.158-0.014,0.315,0.07,0.409,0.229c0.209,0.354,0.53,1.015,0.402,1.556C260.389,366.948,260.251,367.072,260.094,367.099z"
								/>
						</g>
						<path style="fill:#FFFFFF;" d="M237.431,274.131c4.207,7.672,8.833,84.853,8.833,84.853l-9.44,2.439
							c-8.943-31.078-18.416-67.282-18.416-67.282c-15.312,3.332-40.243,3.875-54.506,3.885
							c-7.421,0.005-13.587-5.907-13.675-13.328c-0.219-18.515,14.443-31.572,14.443-31.572
							C185.707,252.596,233.224,266.459,237.431,274.131z"/>
					</g>
					<path style="fill:#D6ECF1;" d="M165.132,297.837c8.798-0.36,17.572-1.038,26.34-1.78l13.145-1.202
						c4.38-0.416,8.76-0.853,13.13-1.329l0.405-0.044l0.11,0.392l4.363,15.545l4.321,15.557c2.826,10.387,5.656,20.772,8.353,31.195
						c-3.136-10.299-6.139-20.636-9.147-30.972l-4.43-15.526l-4.387-15.538l0.515,0.348c-8.767,0.875-17.533,1.705-26.323,2.283
						c-4.394,0.289-8.788,0.581-13.189,0.764C173.938,297.702,169.535,297.855,165.132,297.837z"/>
				</g>
			</g>
			<g>
				<g>
					<g>
						<path style="fill:#E29579;" d="M157.949,205.119c6.409,5.269,15.424,9.039,22.54,8.268c2.284-0.247,4.305-1.066,6.114-2.265
							c0.769-0.722,1.485-1.517,2.177-2.34c-1.706-1.693-7.02-6.988-9.277-9.563l3.299-14.557l-11.439-2.593l-3.66,16.148h-0.737
							c-1.273,1.883-3.906,4.067-8.4,4.237c-0.82,0.031-1.629,0.182-2.4,0.442C156.757,203.634,157.349,204.378,157.949,205.119z"/>
						<path style="fill:#DE7B58;" d="M180.859,193.228l-0.444,1.959c-0.21-0.065-0.424-0.141-0.629-0.227
							c-2.345-0.999-5.585-2.87-7.165-6.002c-0.646-1.272-1.145-3.315-1.53-5.687l0.142-0.626c0.343,1.738,0.758,3.211,1.269,4.21
							c1.58,3.133,4.814,5.002,7.165,6.002C180.055,193.023,180.455,193.147,180.859,193.228z"/>
					</g>
					<path style="fill:#FFAC42;" d="M167.715,198.045c0,0,9,10.875,10.5,10.875s1.125-10,1.125-10s7.875,5.375,8.375,6
						s4.125,13.875,4.75,14.75s-4.125,12.75-4.125,12.75l1.375,21.75h-32.5c0,0-2.5-17.125-5.25-27.75s-3-21.25,2.75-23.375
						S167.715,198.045,167.715,198.045z"/>
				</g>
				<g>
					<g>
						<g>
							
								<rect x="220.216" y="204.071" transform="matrix(0.7682 0.6403 -0.6403 0.7682 186.5935 -92.6689)" style="fill:#002538;" width="2.083" height="14.5"/>
							<path style="fill:#E29579;" d="M225.08,208.373c0,0-5.156,6.172-5.531,5.984s-0.938-1.313-0.938-1.313l1.875-2.563
								c0,0-2.063,0.063-2.75,0.5c-0.616,0.392-2.281,6.236-2.622,7.452c-0.484,0.666-1.082,1.379-1.606,1.975
								c-1.614,1.608-13.832,13.637-31.507,28.027c-5.469-11.311-10.664-23.416-14.755-35.58l-2.556-5.374
								c-1.879-3.97-6.711-5.633-10.275-3.534c0,0-5.794,6.204-2.995,15.536c1.357,4.55,7.012,20.731,17.196,39.466
								c0.505,0.928,1.022,1.863,1.55,2.802c3.471,6.179,11.844,7.401,17.025,2.565c0.654-0.611,1.307-1.228,1.958-1.853
								c11.239-10.729,21.993-23.443,29.656-37.743c0,0,4.683-4.739,5.558-7.426S225.08,208.373,225.08,208.373z"/>
						</g>
						<path style="fill:#FFAC42;" d="M154.715,203.045c0,0-5.417,3.625-4.917,11.792c0.5,8.167,8.667,26.333,8.667,26.333
							l17.167-9.333l-11-28C164.632,203.837,161.799,200.753,154.715,203.045z"/>
					</g>
					<g>
						<g style="opacity:0.5;">
							<path style="fill:#E29579;" d="M194.382,257.086c1-1.682,2.227-3.159,3.506-4.587c1.302-1.407,2.66-2.764,4.244-3.913
								c-0.999,1.684-2.225,3.16-3.506,4.587C197.322,254.579,195.965,255.936,194.382,257.086z"/>
						</g>
						<g style="opacity:0.5;">
							<path style="fill:#E29579;" d="M189.215,242.42c1.077-1.439,2.353-2.645,3.675-3.797c1.343-1.128,2.734-2.199,4.325-3.037
								c-1.076,1.44-2.352,2.647-3.676,3.797C192.196,240.509,190.805,241.581,189.215,242.42z"/>
						</g>
					</g>
				</g>
			</g>
			<g>
				<g>
					<path style="fill:#E29579;" d="M180.999,162.585c-6.245,0.289-11.046,5.564-10.8,11.746c-1.555,0.244-2.763,1.565-2.801,3.194
						c-0.043,1.832,1.372,4.899,3.204,4.942c0.197,0.005,0.389-0.032,0.578-0.092c0.352,1.851,0.783,3.43,1.314,4.48
						c1.588,3.128,4.824,5,7.17,6.003c1.749,0.745,3.748,0.655,5.429-0.246c1.671-0.903,3.789-2.33,5.294-4.357
						c0.514-0.683,0.953-1.445,1.284-2.272c0.147-0.377,0.276-0.809,0.396-1.295c0.002-0.01,0.002-0.01,0.002-0.01
						c0.633-2.656,0.805-6.811,0.787-10.845C192.828,167.398,187.431,162.3,180.999,162.585z"/>
					<g>
						<g>
							<path style="fill:#DD8D74;" d="M178.944,183.275c-0.333,1.47-1.795,2.391-3.264,2.058c-1.47-0.333-2.391-1.795-2.058-3.265
								c0.333-1.47,1.795-2.391,3.265-2.058C178.356,180.344,179.277,181.806,178.944,183.275z"/>
							<path style="fill:#DD8D74;" d="M192.069,184.678c0,0,0,0-0.002,0.01c-0.12,0.486-0.249,0.918-0.396,1.295
								c-0.331,0.827-0.77,1.589-1.284,2.272c-0.455,0.153-0.956,0.193-1.464,0.078c-1.463-0.331-2.393-1.793-2.059-3.266
								c0.332-1.463,1.803-2.391,3.266-2.059C191.047,183.216,191.751,183.868,192.069,184.678z"/>
						</g>
						<g>
							<g>
								<path style="fill:#2D3041;" d="M181.516,178.429c-0.197,0.869-0.701,1.496-1.125,1.399s-0.609-0.879-0.412-1.748
									c0.197-0.869,0.701-1.496,1.125-1.399C181.529,176.778,181.713,177.56,181.516,178.429z"/>
								<path style="fill:#2D3041;" d="M179.827,175.768c0.24,0.453,0.658,0.823,1.091,0.904c0.158,0.029,0.263,0.182,0.234,0.34
									s-0.182,0.263-0.34,0.234c-0.026-0.005-0.05-0.013-0.072-0.023l-0.013-0.007c-0.294-0.142-0.537-0.355-0.71-0.598
									c-0.175-0.245-0.296-0.505-0.368-0.789c-0.013-0.05,0.018-0.102,0.068-0.115c0.043-0.011,0.087,0.01,0.106,0.047
									L179.827,175.768z"/>
							</g>
							<g>
								<path style="fill:#2D3041;" d="M186.636,179.589c-0.197,0.869-0.012,1.651,0.412,1.748c0.424,0.096,0.928-0.53,1.125-1.399
									c0.197-0.869,0.012-1.652-0.412-1.748C187.337,178.094,186.833,178.72,186.636,179.589z"/>
								<path style="fill:#2D3041;" d="M189.443,178.048c-0.188,0.225-0.409,0.409-0.672,0.554
									c-0.261,0.145-0.572,0.233-0.899,0.234h-0.014c-0.161,0.001-0.292-0.13-0.292-0.291c-0.001-0.161,0.13-0.292,0.291-0.293
									c0.026,0,0.053,0.004,0.076,0.01c0.426,0.114,0.963-0.039,1.374-0.345l0.007-0.005c0.042-0.031,0.101-0.022,0.132,0.019
									C189.473,177.967,189.47,178.015,189.443,178.048z"/>
							</g>
						</g>
						<g>
							<path style="fill:#FFFFFF;" d="M185.883,184.424c-4.527,4.907-5.771-1.308-5.771-1.308L185.883,184.424z"/>
							<path style="fill:#2D3041;" d="M181.555,186.376c0.268,0.118,0.519,0.224,0.788,0.274c0.265,0.071,0.536,0.074,0.831,0.093
								c-0.265,0.136-0.579,0.147-0.872,0.091C182.015,186.759,181.73,186.62,181.555,186.376z"/>
						</g>
						<g>
							<path style="fill:#D37571;" d="M187.234,173.987c0.431-0.237,0.86-0.249,1.291-0.171c0.425,0.086,0.848,0.234,1.228,0.468
								c0.386,0.221,0.716,0.541,0.972,0.893c0.272,0.345,0.426,0.755,0.541,1.15c0.058,0.2-0.056,0.409-0.256,0.468
								c-0.16,0.047-0.326-0.017-0.416-0.147l-0.025-0.036c-0.198-0.287-0.389-0.557-0.622-0.775
								c-0.218-0.232-0.487-0.393-0.76-0.534c-0.277-0.134-0.573-0.24-0.888-0.294c-0.309-0.059-0.639-0.117-0.958-0.276
								l-0.092-0.046c-0.195-0.097-0.275-0.335-0.177-0.53C187.108,174.082,187.166,174.025,187.234,173.987z"/>
							<path style="fill:#D37571;" d="M183.392,173.117c-0.286-0.4-0.669-0.595-1.091-0.711c-0.421-0.105-0.866-0.154-1.309-0.107
								c-0.444,0.033-0.879,0.179-1.262,0.387c-0.395,0.194-0.709,0.498-0.984,0.805c-0.139,0.155-0.126,0.394,0.03,0.533
								c0.124,0.111,0.302,0.125,0.439,0.047l0.038-0.022c0.302-0.174,0.591-0.335,0.896-0.431c0.298-0.115,0.609-0.145,0.916-0.154
								c0.308-0.001,0.62,0.031,0.928,0.118c0.304,0.08,0.628,0.17,0.983,0.164l0.103-0.002c0.218-0.004,0.392-0.183,0.388-0.402
								C183.465,173.257,183.438,173.18,183.392,173.117z"/>
						</g>
						<path style="fill:#2D3041;" d="M183.983,178.255c0.1,0.368,0.068,0.769-0.007,1.137c-0.08,0.367-0.207,0.721-0.324,1.077
							c-0.126,0.346-0.261,0.72-0.408,1.032c-0.057,0.158-0.077,0.237,0.075,0.348c0.135,0.116,0.298,0.196,0.474,0.268
							c-0.191,0.012-0.383-0.036-0.567-0.109c-0.086-0.035-0.206-0.108-0.257-0.24c-0.05-0.129-0.028-0.253-0.005-0.354
							c0.11-0.385,0.212-0.715,0.333-1.068C183.535,179.647,183.881,178.995,183.983,178.255z"/>
						<g>
							<g>
								<path style="fill:#2D3041;" d="M169.423,176.19c0.368-0.012,0.73,0.079,1.071,0.222c0.342,0.143,0.658,0.359,0.927,0.632
									c0.265,0.277,0.459,0.633,0.543,1.007c0.101,0.373,0.04,0.764-0.078,1.104c-0.087-0.36-0.138-0.691-0.288-0.983
									c-0.141-0.29-0.307-0.56-0.536-0.788C170.618,176.915,170.046,176.561,169.423,176.19z"/>
								<path style="fill:#2D3041;" d="M169.963,179.954c-0.129-0.261-0.172-0.549-0.167-0.838c0.004-0.29,0.073-0.582,0.201-0.856
									c0.135-0.27,0.349-0.512,0.611-0.667c0.257-0.168,0.569-0.209,0.85-0.183c-0.235,0.175-0.452,0.303-0.615,0.489
									c-0.162,0.178-0.303,0.363-0.404,0.581C170.226,178.912,170.112,179.404,169.963,179.954z"/>
							</g>
						</g>
					</g>
				</g>
				<path style="fill:#002538;" d="M195.265,172.07c-0.19-2.13-1.49-3.98-2.84-5.63c-1.35-1.65-2.85-3.27-4.8-4.14
					c-2.09-0.94-4.49-0.93-6.78-0.81c-2.26,0.11-4.57,0.3-6.64,1.21c-2.07,0.92-3.94,2.79-4.38,5.01c-1.79-0.05-3.3,1.52-3.78,3.25
					c-0.48,1.73-0.15,3.56,0.23,5.32c0.587,2.752,1.314,5.478,2.15,8.17c-1.856,4.834-8.452,8.592-9.974,13.581
					c-0.553,1.813-0.221,3.961,1.887,5.111c1.212,0.661,2.826,0.889,4.051,1.539c1.932,1.024,2.495,2.858,2.583,4.537
					c0.088,1.679-0.147,3.417,0.717,4.987c1.341,2.436,5.495,3.955,9.174,3.354c3.811-0.623,4.365-4.66,3.1-7.215
					c-1.715-3.466-7.714-5.501-8.544-9.119c-0.48-2.089,0.931-4.132,1.671-6.185c1.261-3.499,0.237-7.06-2.369-10.122l0.513-2.258
					c-0.02-0.09-0.04-0.18-0.06-0.28c-0.18,0.06-0.38,0.09-0.57,0.09c-1.83-0.05-3.25-3.11-3.21-4.94
					c0.037-1.52,1.097-2.759,2.496-3.123c1.642,1.425,3.032,3.104,3.629,5.197c0.509-1.047,0.827-2.32,0.838-3.484
					c2.306,0.384,4.729,0.036,6.834-0.981c2.105-1.017,3.883-2.699,5.014-4.745c1.134,3.681,3.473,6.885,6.504,9.262
					c-0.006,0.093-0.009,0.191-0.016,0.284C193.865,177.35,195.525,174.85,195.265,172.07z"/>
			</g>
		</g>
	</g>
	<g>
		<g>
			<g>
				<path style="fill:#A75934;" d="M581.113,171.536c-1.787-2.416-3.668-4.946-5.438-7.574c-1.941,8.994-4.337,17.897-6.932,26.345
					c-25.362,9.232-45.804,13.945-45.804,13.945l0.983,6.234c13.251,0.884,26.732-0.758,39.336-3.634
					c3.201-0.727,6.344-1.532,9.411-2.397c5.218-1.471,9.377-5.407,11.145-10.532c1.303-3.778,2.452-7.427,3.455-10.879
					c0.244-0.838,0.48-1.664,0.708-2.477C585.532,177.635,583.303,174.497,581.113,171.536z"/>
				<path style="fill:#A75934;" d="M524.218,210.35c0,0-8.517,3.456-11.391,2.858c-0.641-0.133,0.425-0.864,2.003-1.544
					c0,0-4.43,0.509-4.956,0.323c-0.526-0.186,5.677-2.269,5.677-2.269s-6.87,1.129-7.234,0.605s6.092-2.202,6.092-2.202
					s-5.529,0.867-5.85,0.337c-0.32-0.531,7.309-2.408,7.309-2.408s-2.585-1.903-1.876-2.436c0.709-0.533,3.9,0.269,5.064,0.76
					c1.164,0.491,5.819-0.503,5.819-0.503L524.218,210.35z"/>
			</g>
			<path style="fill:#00DCA9;" d="M580.192,144.619l-11.993,44.291l-28.995,9.727l2.067,12.859c0,0,37.658-3.444,41.791-11.022
				c4.133-7.577,11.711-44.317,11.711-44.317L580.192,144.619z"/>
		</g>
		<g>
			<g>
				<path style="fill:#C57650;" d="M659.227,354.686c10.835,15.839,18.525,27.015,18.525,27.015l5.276-3.011
					c-4.504-11.404-8.838-21.469-12.866-30.252C666.562,350.584,662.895,352.633,659.227,354.686z"/>
				<path style="fill:#00DCA9;" d="M668.286,391.69l16.876-8.932c0.156-0.083,0.237-0.279,0.187-0.483
					c-0.432-1.753-1.534-3.273-2.076-3.942c-0.167-0.206-0.427-0.249-0.592-0.098c-0.784,0.714-3.029,2.629-4.593,2.656
					c-0.143,0.002-0.284-0.091-0.375-0.229c-0.397-0.597-1.521-2.204-1.99-2.04c-0.568,0.199-2.994,7.892-8.283,11.241
					c-0.124,0.079-0.192,0.229-0.172,0.4c0.046,0.379,0.182,1.048,0.582,1.374C667.984,391.745,668.155,391.759,668.286,391.69z"/>
			</g>
			<g>
				<path style="fill:#C57650;" d="M564.872,348.069c0.085,0.749,0.169,1.494,0.252,2.228c2.315,20.4,4.023,35.077,4.023,35.077
					l6.071-0.193c1.528-13.755,2.452-25.909,2.978-36.424C573.755,348.623,569.313,348.35,564.872,348.069z"/>
				<path style="fill:#00DCA9;" d="M556.108,389.775h19.094c0.177,0,0.34-0.135,0.391-0.339c0.438-1.751,0.175-3.611,0.009-4.455
					c-0.051-0.26-0.261-0.42-0.478-0.364c-1.027,0.265-3.906,0.907-5.302,0.199c-0.127-0.065-0.208-0.213-0.225-0.378
					c-0.072-0.713-0.313-2.66-0.805-2.734c-0.595-0.09-6.338,5.574-12.579,6.06c-0.147,0.012-0.277,0.112-0.339,0.273
					c-0.137,0.357-0.329,1.011-0.128,1.486C555.815,389.682,555.96,389.775,556.108,389.775z"/>
			</g>
			<path style="fill:#002538;" d="M579.541,207.363c0,0.919,51.741-5.817,51.741-5.817s4.592,22.044,5.817,29.085
				c1.225,7.042,11.022,72.867,11.022,72.867l29.392,57.865l-12.246,7.042c0,0-35.515-53.884-37.352-56.334
				c-1.837-2.449-23.574-77.153-23.574-77.153l-23.881,67.356l-1.837,70.417l-13.471-0.306c0,0-7.654-69.193-8.266-71.948
				C556.273,297.68,579.541,207.363,579.541,207.363z"/>
		</g>
		<g>
			<g>
				<g>
					<g>
						<path style="fill:#C57650;" d="M585.684,142.292c3.918,7.17,10.064,12.122,18.526,12.898
							c4.309-2.726,7.068-8.052,9.322-12.356c0.676-1.29,1.349-2.594,1.998-3.909c-6.049-0.72-9.231-3.398-9.502-3.637
							l-0.753-12.191l-10.867,0.671l0.831,13.45C593.904,138.653,590.844,141.279,585.684,142.292z"/>
						<path style="fill:#A75934;" d="M594.912,131.907l0.115,1.861c0.203-0.028,0.409-0.066,0.611-0.114
							c2.298-0.565,5.544-1.797,7.459-4.432c0.781-1.069,1.543-2.867,2.25-4.983l-0.037-0.595c-0.574,1.541-1.173,2.829-1.79,3.668
							c-1.915,2.635-5.156,3.866-7.459,4.432C595.679,131.839,595.294,131.893,594.912,131.907z"/>
					</g>
					<path style="fill:#00DCA9;" d="M595.002,141.921l1.148,4.363l1.914-5.052l-0.077-5.205l8.955-3.521v2.756
						c0,0,6.2,2.449,11.022,2.985c4.822,0.536,7.807,6.965,8.955,11.864c1.148,4.899,6.659,59.166,6.659,59.166l-33.448,2.067
						l-5.817-4.516l-2.296,5.128h-13.854l-0.919-48.221c0,0,1.493-15.518,2.947-19.116c1.454-3.597,14.868-10.103,14.868-10.103
						l0.249,2.813L595.002,141.921z"/>
				</g>
				<g style="opacity:0.5;">
					<path style="fill:#00DCA9;" d="M577.75,183.75c-0.185-2.148-0.261-4.295-0.32-6.441c-0.071-2.147-0.063-4.293-0.054-6.439
						c0.032-2.146,0.066-4.291,0.178-6.436l0.171-3.217c0.093-1.072,0.152-2.145,0.276-3.216c0.103,1.074,0.141,2.147,0.214,3.221
						l0.108,3.22c0.07,2.147,0.062,4.293,0.053,6.439c-0.033,2.146-0.067,4.291-0.179,6.436
						C578.094,179.461,577.977,181.606,577.75,183.75z"/>
				</g>
			</g>
			<g>
				<g>
					<g>
						
							<linearGradient id="SVGID_00000047754895068680011740000004169250855719870354_" gradientUnits="userSpaceOnUse" x1="491.2159" y1="192.8808" x2="580.8179" y2="192.8808" gradientTransform="matrix(0.9981 -0.0616 0.0616 0.9981 -12.567 39.985)">
							<stop  offset="0.1175" style="stop-color:#FCD301"/>
							<stop  offset="0.8525" style="stop-color:#FCA601"/>
						</linearGradient>
						
							<circle style="fill:url(#SVGID_00000047754895068680011740000004169250855719870354_);" cx="536.905" cy="199.321" r="43.475"/>
						
							<linearGradient id="SVGID_00000029033472417850615200000009001938725237721273_" gradientUnits="userSpaceOnUse" x1="504.9395" y1="197.782" x2="582.0915" y2="197.782" gradientTransform="matrix(0.9981 -0.0616 0.0616 0.9981 -12.567 39.985)">
							<stop  offset="0.1175" style="stop-color:#FCD301"/>
							<stop  offset="0.8525" style="stop-color:#FCA601"/>
						</linearGradient>
						<path style="opacity:0.5;fill:url(#SVGID_00000029033472417850615200000009001938725237721273_);" d="M580.3,196.638
							c1.48,23.964-16.755,44.598-40.719,46.078c-13.549,0.837-26.034-4.632-34.593-13.876c7.858,5.644,17.627,8.712,28.023,8.07
							c23.964-1.48,42.198-22.115,40.719-46.078c-0.642-10.396-4.889-19.713-11.456-26.817
							C572.5,171.372,579.463,183.089,580.3,196.638z"/>
						
							<linearGradient id="SVGID_00000124879036846742268100000012979157400899336877_" gradientUnits="userSpaceOnUse" x1="569.6312" y1="227.0477" x2="509.3174" y2="160.6105" gradientTransform="matrix(0.9981 -0.0616 0.0616 0.9981 -12.567 39.985)">
							<stop  offset="0" style="stop-color:#FC8301"/>
							<stop  offset="0.7925" style="stop-color:#FCA401"/>
						</linearGradient>
						
							<circle style="fill:url(#SVGID_00000124879036846742268100000012979157400899336877_);" cx="536.905" cy="199.321" r="37.046"/>
						
							<linearGradient id="SVGID_00000177454279409136384440000010526825770940850877_" gradientUnits="userSpaceOnUse" x1="500.1447" y1="192.8808" x2="572.8674" y2="192.8808" gradientTransform="matrix(0.9981 -0.0616 0.0616 0.9981 -12.567 39.985)">
							<stop  offset="0.1175" style="stop-color:#FCD301"/>
							<stop  offset="0.8525" style="stop-color:#FCA601"/>
						</linearGradient>
						
							<circle style="fill:url(#SVGID_00000177454279409136384440000010526825770940850877_);" cx="536.905" cy="199.321" r="35.285"/>
						
							<linearGradient id="SVGID_00000094600357359079113130000002349617587879636906_" gradientUnits="userSpaceOnUse" x1="495.1384" y1="194.7563" x2="578.3447" y2="194.7563" gradientTransform="matrix(0.9981 -0.0616 0.0616 0.9981 -12.567 39.985)">
							<stop  offset="0.1175" style="stop-color:#FCD301"/>
							<stop  offset="0.8525" style="stop-color:#FCA601"/>
						</linearGradient>
						<path style="opacity:0.5;fill:url(#SVGID_00000094600357359079113130000002349617587879636906_);" d="M577.65,214.525
							c-5.829,15.581-20.394,27.099-38.069,28.191c-23.964,1.48-44.589-16.756-46.069-40.719
							c-1.092-17.684,8.539-33.545,23.294-41.238c-2.069,5.539-3.038,11.599-2.651,17.878c1.48,23.964,22.105,42.199,46.069,40.719
							C566.513,218.968,572.408,217.26,577.65,214.525z"/>
						
							<linearGradient id="SVGID_00000096046671838106093150000016419027136831028153_" gradientUnits="userSpaceOnUse" x1="495.1384" y1="192.8823" x2="582.0915" y2="192.8823" gradientTransform="matrix(0.9981 -0.0616 0.0616 0.9981 -12.567 39.985)">
							<stop  offset="0.1175" style="stop-color:#FCD301"/>
							<stop  offset="0.8525" style="stop-color:#FCA601"/>
						</linearGradient>
						<path style="opacity:0.5;fill:url(#SVGID_00000096046671838106093150000016419027136831028153_);" d="M534.222,155.929
							c-23.964,1.48-42.19,22.105-40.71,46.068c1.48,23.964,22.105,42.199,46.069,40.719c23.964-1.48,42.198-22.115,40.719-46.078
							C578.82,172.674,558.186,154.449,534.222,155.929z M539.402,239.81c-22.359,1.381-41.602-15.624-42.984-37.993
							c-1.381-22.359,15.624-41.602,37.984-42.983c22.368-1.381,41.611,15.624,42.992,37.983
							C578.775,219.186,561.77,238.429,539.402,239.81z"/>
						
							<linearGradient id="SVGID_00000179614878924009252260000001936009982105082770_" gradientUnits="userSpaceOnUse" x1="546.516" y1="153.3095" x2="546.516" y2="202.7068" gradientTransform="matrix(0.9981 -0.0616 0.0616 0.9981 -12.567 39.985)">
							<stop  offset="0.1175" style="stop-color:#FCD301"/>
							<stop  offset="0.8525" style="stop-color:#FCA601"/>
						</linearGradient>
						<path style="opacity:0.21;fill:url(#SVGID_00000179614878924009252260000001936009982105082770_);" d="M548.43,168.305
							c9.35,3.211,16.948,11.129,19.769,20.604c1.26,4.231,1.547,9.024-0.618,12.871c-2.165,3.847-7.359,6.154-11.236,4.044
							c-2.646-1.441-4.017-4.382-5.598-6.947c-3.909-6.342-10.085-11.253-17.144-13.632c-3.449-1.163-7.141-1.762-10.267-3.626
							c-2.25-1.342-5.208-5.495-4.598-7.638c0.571-2.004,4.86-3.764,6.913-4.657C532.777,166.223,541.062,165.775,548.43,168.305z"
							/>
					</g>
					
						<linearGradient id="SVGID_00000140722730875915063250000006782581485749872022_" gradientUnits="userSpaceOnUse" x1="524.7569" y1="192.8823" x2="552.4737" y2="192.8823" gradientTransform="matrix(0.9981 -0.0616 0.0616 0.9981 -12.567 39.985)">
						<stop  offset="0.1175" style="stop-color:#FCD301"/>
						<stop  offset="0.8525" style="stop-color:#FCA601"/>
					</linearGradient>
					<path style="opacity:0.5;fill:url(#SVGID_00000140722730875915063250000006782581485749872022_);" d="M549.406,201.183
						c-1.093-1.499-2.408-2.555-3.947-3.168c-1.538-0.612-3.431-1.094-5.68-1.447c-0.095-0.012-0.186-0.026-0.271-0.04
						c-0.086-0.013-0.177-0.027-0.271-0.04c-0.096-0.012-0.181-0.027-0.258-0.041c-0.076-0.014-0.153-0.028-0.229-0.042
						c-1.906-0.297-3.411-0.6-4.515-0.91c-1.105-0.309-2.039-0.841-2.803-1.596c-0.764-0.754-1.188-1.837-1.275-3.247l-0.002-0.028
						c-0.126-2.049,0.398-3.624,1.576-4.726c1.178-1.101,3.008-1.728,5.49-1.882c1.296-0.08,2.622,0.07,3.976,0.448
						c1.353,0.379,2.755,0.995,4.205,1.85l3.174-4.98c-1.292-0.751-2.585-1.364-3.879-1.841c-1.294-0.476-2.593-0.811-3.898-1.005
						c-0.62-0.092-1.242-0.147-1.865-0.177l-0.289-4.686l-5.753,0.355l0.3,4.856c-1.39,0.312-2.633,0.741-3.698,1.312
						c-1.928,1.035-3.333,2.49-4.217,4.366c-0.884,1.876-1.241,4.186-1.072,6.931l0.002,0.028c0.174,2.82,0.863,4.962,2.066,6.425
						c1.204,1.464,2.604,2.439,4.2,2.926c1.596,0.486,3.668,0.887,6.217,1.201c0.095,0.013,0.196,0.026,0.3,0.038
						c0.104,0.012,0.205,0.026,0.3,0.038c0.057,0.015,0.11,0.022,0.157,0.019c0.047-0.003,0.1,0.004,0.157,0.019
						c1.598,0.203,2.917,0.471,3.957,0.803c1.04,0.332,1.903,0.873,2.591,1.623c0.687,0.75,1.073,1.802,1.156,3.156l0.002,0.028
						c0.131,2.125-0.429,3.749-1.68,4.873c-1.253,1.125-3.213,1.77-5.882,1.935c-1.937,0.12-3.753-0.178-5.448-0.895
						c-1.696-0.716-3.271-1.85-4.726-3.402l-3.574,4.92c1.322,1.239,2.719,2.253,4.193,3.039c1.474,0.787,3.037,1.351,4.69,1.692
						c1.653,0.341,2.481,0.512,2.481,0.512s0.132-0.008,0.395-0.024l0.282,4.568l5.753-0.355l-0.296-4.794
						c1.613-0.309,3.05-0.748,4.261-1.353c2.005-1.002,3.47-2.413,4.395-4.234c0.925-1.822,1.306-4.058,1.142-6.709l-0.003-0.056
						C551.128,204.776,550.499,202.682,549.406,201.183z"/>
				</g>
				<g>
					<g>
						<path style="fill:#A75934;" d="M583.986,202.842c-0.619-2.73-1.25-5.496-1.796-8.275c-14.542,4.598-25.115,7.163-27.121,7.639
							c-1.463,0.246-3.514,0.51-4.234,0.206c-1.164-0.491-4.355-1.293-5.064-0.76c-0.709,0.533,1.876,2.436,1.876,2.436
							s-7.629,1.877-7.308,2.408c0.32,0.531,5.849-0.337,5.849-0.337s-6.456,1.678-6.092,2.202c0.364,0.523,7.234-0.605,7.234-0.605
							s-6.203,2.083-5.677,2.269c0.526,0.186,4.956-0.323,4.956-0.323c-1.578,0.68-2.644,1.411-2.003,1.544
							c2.562,0.533,9.595-2.151,11.093-2.74l0.003,0.016c9.762,0.651,19.649-0.072,29.218-1.646
							C584.609,205.532,584.292,204.191,583.986,202.842z"/>
						<path style="fill:#00DCA9;" d="M572.959,195.882l26.177-9.185l12.17-44.547l13.835,11.932c0,0-9.013,41.57-13.376,45.933
							c-4.363,4.363-36.051,9.644-36.051,9.644L572.959,195.882z"/>
					</g>
					<g>
						<g style="opacity:0.5;">
							<path style="fill:#00DCA9;" d="M575.714,209.659c3.242-0.595,6.481-1.192,9.703-1.87c3.227-0.65,6.444-1.347,9.635-2.136
								c3.185-0.806,6.372-1.617,9.469-2.673c0.78-0.25,1.542-0.539,2.297-0.843c0.776-0.29,1.482-0.589,2.126-1.037
								c1.294-0.865,2.333-2.106,2.965-3.528c0.329-0.69,0.529-1.477,0.785-2.272l0.733-2.36l1.467-4.719
								c0.986-3.144,1.936-6.298,2.957-9.431l3.023-9.411c1.043-3.126,2.053-6.262,3.124-9.38c-0.855,3.184-1.772,6.348-2.656,9.523
								l-2.757,9.492c-0.905,3.168-1.882,6.315-2.823,9.472l-1.423,4.732l-0.712,2.366l-0.356,1.183
								c-0.129,0.409-0.271,0.824-0.456,1.217c-0.721,1.581-1.893,2.956-3.347,3.908c-0.717,0.491-1.543,0.831-2.311,1.108
								c-0.776,0.305-1.557,0.591-2.349,0.838c-3.155,1.028-6.356,1.864-9.585,2.558
								C588.774,207.805,582.261,208.88,575.714,209.659z"/>
						</g>
						<g style="opacity:0.5;">
							<path style="fill:#00DCA9;" d="M577.667,194.333c3.526-1.418,7.068-2.794,10.625-4.124c3.548-1.357,7.115-2.661,10.689-3.947
								l-0.291,0.316c0.743-2.825,1.448-5.659,2.235-8.472l2.311-8.452c1.585-5.622,3.19-11.24,4.93-16.821
								c-1.271,5.706-2.676,11.377-4.101,17.042l-2.204,8.48c-0.718,2.831-1.518,5.641-2.28,8.46l-0.064,0.236l-0.227,0.08
								c-3.583,1.259-7.172,2.502-10.78,3.69C584.911,192.037,581.296,193.206,577.667,194.333z"/>
						</g>
					</g>
				</g>
			</g>
		</g>
		<g>
			<g>
				<path style="fill:#C57650;" d="M607.497,116.182c1.145-5.626-2.469-11.177-8.15-12.368h0
					c-5.845-1.225-11.555,2.649-12.539,8.539c-0.73,4.37-1.24,8.944-0.723,11.305c0.698,3.186,3.164,5.612,5.041,7.05
					c1.404,1.076,3.218,1.458,4.936,1.036c2.3-0.565,5.543-1.796,7.46-4.431c0.642-0.883,1.273-2.265,1.873-3.909
					c0.164,0.084,0.336,0.146,0.517,0.171c1.685,0.234,3.438-2.366,3.672-4.051C609.793,118.028,608.884,116.638,607.497,116.182z"
					/>
				<g>
					<g>
						<g>
							<path style="fill:#002538;" d="M591.004,122.389c0.388,0.327,0.8,0.608,1.236,0.812c0.435,0.2,0.9,0.329,1.359,0.276
								c0.458-0.024,0.905-0.194,1.308-0.458c0.413-0.254,0.768-0.599,1.148-0.942c-0.125,0.22-0.272,0.429-0.414,0.646
								c-0.181,0.181-0.343,0.389-0.55,0.551c-0.4,0.344-0.925,0.552-1.465,0.611C592.508,123.938,591.527,123.246,591.004,122.389z
								"/>
							<path style="fill:#002538;" d="M592.971,124.718c0.247,0.03,0.478,0.079,0.713,0.036c0.239,0.013,0.458-0.071,0.704-0.123
								c-0.185,0.177-0.444,0.241-0.694,0.284C593.442,124.903,593.174,124.879,592.971,124.718z"/>
						</g>
						<g>
							<path style="fill:#002538;" d="M594.658,113.188c0.297-0.298,0.646-0.41,1.018-0.45c0.369-0.031,0.752-0.011,1.12,0.089
								c0.37,0.088,0.717,0.272,1.012,0.499c0.306,0.218,0.53,0.517,0.72,0.814c0.096,0.15,0.052,0.35-0.098,0.445
								c-0.12,0.077-0.272,0.064-0.377-0.021l-0.029-0.023c-0.232-0.188-0.453-0.364-0.697-0.487
								c-0.235-0.138-0.494-0.206-0.752-0.256c-0.26-0.044-0.528-0.059-0.799-0.028c-0.268,0.026-0.553,0.057-0.852,0.003
								l-0.086-0.015c-0.184-0.033-0.306-0.209-0.273-0.392C594.577,113.296,594.611,113.234,594.658,113.188z"/>
							<path style="fill:#002538;" d="M591.296,113.395c-0.331-0.259-0.692-0.328-1.066-0.322c-0.37,0.014-0.748,0.081-1.1,0.226
								c-0.356,0.133-0.678,0.358-0.943,0.62c-0.277,0.254-0.463,0.579-0.614,0.896c-0.077,0.161-0.009,0.353,0.152,0.43
								c0.129,0.061,0.278,0.03,0.371-0.067l0.026-0.027c0.207-0.215,0.405-0.417,0.632-0.568c0.216-0.166,0.465-0.265,0.715-0.347
								c0.252-0.075,0.517-0.123,0.79-0.126c0.269-0.007,0.556-0.011,0.846-0.102l0.084-0.026c0.178-0.055,0.278-0.245,0.222-0.423
								C591.389,113.493,591.348,113.436,591.296,113.395z"/>
						</g>
						<path style="fill:#002538;" d="M592.861,115.875c0.107,0.515,0.199,1.035,0.271,1.559c0.083,0.521,0.121,1.053,0.052,1.603
							c-0.045,0.271-0.134,0.544-0.273,0.787c-0.147,0.236-0.217,0.41-0.081,0.582c0.29,0.335,0.912,0.395,1.373,0.17
							c-0.414,0.312-1.083,0.414-1.549-0.018c-0.112-0.109-0.183-0.295-0.149-0.463c0.029-0.166,0.107-0.29,0.164-0.403
							c0.115-0.218,0.183-0.454,0.216-0.702c0.087-0.492,0.049-1.018,0.015-1.538C592.87,116.93,592.858,116.406,592.861,115.875z"
							/>
						<g>
							<g>
								<g>
									<path style="fill:#002538;" d="M591.102,118.196c0.051,0.826-0.235,1.515-0.638,1.54c-0.403,0.025-0.772-0.624-0.822-1.45
										c-0.051-0.826,0.235-1.515,0.638-1.54S591.052,117.37,591.102,118.196z"/>
								</g>
								<g>
									<path style="fill:#002538;" d="M595.966,117.896c0.051,0.826,0.419,1.475,0.823,1.45c0.403-0.025,0.689-0.714,0.638-1.54
										c-0.051-0.826-0.419-1.475-0.823-1.45C596.201,116.381,595.915,117.07,595.966,117.896z"/>
								</g>
							</g>
							<g>
								<g>
									<path style="fill:#002538;" d="M608.139,117.881c-0.626,0.247-1.203,0.487-1.68,0.849
										c-0.243,0.175-0.436,0.397-0.608,0.642c-0.181,0.246-0.277,0.541-0.411,0.858c-0.058-0.328-0.055-0.696,0.093-1.023
										c0.133-0.33,0.363-0.627,0.647-0.842c0.287-0.211,0.609-0.361,0.944-0.441
										C607.458,117.845,607.803,117.816,608.139,117.881z"/>
									<path style="fill:#002538;" d="M607.083,121.25c-0.054-0.526-0.085-0.994-0.216-1.422
										c-0.061-0.214-0.162-0.405-0.284-0.592c-0.121-0.194-0.301-0.344-0.49-0.539c0.261,0.018,0.541,0.102,0.751,0.294
										c0.217,0.18,0.377,0.434,0.461,0.702c0.076,0.27,0.097,0.548,0.057,0.814C607.322,120.772,607.24,121.03,607.083,121.25z"
										/>
								</g>
							</g>
						</g>
					</g>
				</g>
			</g>
			<path style="fill:#002538;" d="M609.983,110.453c-0.459-1.194-1.534-2.232-2.811-2.315c-1.102-1.506-2.223-3.104-3.573-4.39
				c-1.35-1.286-2.967-2.342-4.785-2.774c-3.114-0.744-6.384,0.459-9.093,2.177c-1.58,1.001-3.104,2.25-3.858,3.968
				c-0.615,1.396-0.661,2.985-0.404,4.491c0.115,0.636,0.283,1.262,0.476,1.88c0.105,0.77,0.331,1.551,0.944,2.003
				c0.728,0.536,1.738,0.421,2.615,0.201c4.139-1.036,7.724-3.727,11.061-6.386c-0.53,3.183,0.883,6.612,3.503,8.497
				c0.129,0.587,0.144,1.334,0.273,1.92c0.33-1.67,1.757-3.009,3.407-3.433c0.672,0.286,1.218,0.788,1.546,1.426
				c0.413-1.111,0.716-2.278,0.9-3.453C610.387,112.988,610.442,111.656,609.983,110.453z"/>
		</g>
	</g>
	<g>
		<path style="fill:#B2E6F1;" d="M260.667,139.833L260.667,139.833c0-3.59-2.91-6.5-6.5-6.5l0,0c3.59,0,6.5-2.91,6.5-6.5l0,0
			c0,3.59,2.91,6.5,6.5,6.5l0,0C263.577,133.333,260.667,136.243,260.667,139.833z"/>
		<path style="fill:#B2E6F1;" d="M550.667,144.833L550.667,144.833c0-3.59-2.91-6.5-6.5-6.5l0,0c3.59,0,6.5-2.91,6.5-6.5l0,0
			c0,3.59,2.91,6.5,6.5,6.5l0,0C553.577,138.333,550.667,141.243,550.667,144.833z"/>
		<path style="fill:#B2E6F1;" d="M673.667,252.167L673.667,252.167c0-2.117-1.716-3.833-3.833-3.833l0,0
			c2.117,0,3.833-1.716,3.833-3.833l0,0c0,2.117,1.716,3.833,3.833,3.833l0,0C675.383,248.333,673.667,250.05,673.667,252.167z"/>
		<path style="fill:#B2E6F1;" d="M115.333,188.333L115.333,188.333c0-2.117-1.716-3.833-3.833-3.833l0,0
			c2.117,0,3.833-1.716,3.833-3.833h0c0,2.117,1.716,3.833,3.833,3.833l0,0C117.05,184.5,115.333,186.216,115.333,188.333z"/>
		<path style="fill:#FFFFFF;" d="M278.667,187L278.667,187c0-2.117-1.716-3.833-3.833-3.833l0,0c2.117,0,3.833-1.716,3.833-3.833
			l0,0c0,2.117,1.716,3.833,3.833,3.833l0,0C280.383,183.167,278.667,184.883,278.667,187z"/>
		<path style="fill:#FFFFFF;" d="M539.333,270L539.333,270c0-4.51-3.656-8.167-8.167-8.167l0,0c4.51,0,8.167-3.656,8.167-8.167l0,0
			c0,4.51,3.656,8.167,8.167,8.167l0,0C542.99,261.833,539.333,265.49,539.333,270z"/>
		<path style="fill:#FFFFFF;" d="M502.667,178.667L502.667,178.667c0-3.406-2.761-6.167-6.167-6.167l0,0
			c3.406,0,6.167-2.761,6.167-6.167l0,0c0,3.406,2.761,6.167,6.167,6.167l0,0C505.428,172.5,502.667,175.261,502.667,178.667z"/>
		<path style="fill:#FFFFFF;" d="M564.667,181.167L564.667,181.167c0-3.406-2.761-6.167-6.167-6.167l0,0
			c3.406,0,6.167-2.761,6.167-6.167l0,0c0,3.406,2.761,6.167,6.167,6.167l0,0C567.428,175,564.667,177.761,564.667,181.167z"/>
		<path style="fill:#D6ECF1;" d="M134.667,169.167L134.667,169.167c0-3.406-2.761-6.167-6.167-6.167l0,0
			c3.406,0,6.167-2.761,6.167-6.167h0c0,3.406,2.761,6.167,6.167,6.167l0,0C137.428,163,134.667,165.761,134.667,169.167z"/>
		<path style="fill:none;stroke:#D6ECF1;stroke-miterlimit:10;" d="M285.333,108.333c0,1.473-1.194,2.667-2.667,2.667
			c-1.473,0-2.667-1.194-2.667-2.667c0-1.473,1.194-2.667,2.667-2.667C284.139,105.667,285.333,106.861,285.333,108.333z"/>
		<circle style="fill:none;stroke:#D6ECF1;stroke-miterlimit:10;" cx="88.667" cy="229.667" r="4"/>
		<circle style="fill:none;stroke:#D6ECF1;stroke-miterlimit:10;" cx="100.333" cy="170.667" r="3"/>
		<circle style="fill:none;stroke:#D6ECF1;stroke-miterlimit:10;" cx="648.667" cy="144.333" r="4"/>
		<path style="fill:none;stroke:#D6ECF1;stroke-miterlimit:10;" d="M663.333,181.667c0,1.841-1.492,3.333-3.333,3.333
			c-1.841,0-3.333-1.492-3.333-3.333c0-1.841,1.492-3.333,3.333-3.333C661.841,178.333,663.333,179.826,663.333,181.667z"/>
		<circle style="fill:none;stroke:#D6ECF1;stroke-miterlimit:10;" cx="463.667" cy="117.333" r="3"/>
		<path style="fill:none;stroke:#D6ECF1;stroke-miterlimit:10;" d="M78.667,239.667c0,2.577-2.089,4.667-4.667,4.667
			s-4.667-2.089-4.667-4.667c0-2.577,2.089-4.667,4.667-4.667S78.667,237.089,78.667,239.667z"/>
	</g>
</g>
</svg>
